# Blender v3.0.1 OBJ File: 'churchFull.blend'
# www.blender.org
mtllib churchInterior.mtl
o interior_Plane
v 0.000000 0.000000 30.000000
v 30.000000 0.000000 30.000000
v 0.000000 2.941862 -20.876707
v 0.000000 52.947319 30.000000
v 7.701512 16.276613 32.573597
v 30.000000 16.276613 30.000000
v 0.000000 16.276613 -30.000000
v 30.000000 16.276613 -30.000000
v 0.000000 2.941862 -30.000000
v 30.000000 2.941862 -30.000000
v 30.000000 2.941862 30.000000
v 8.206678 2.941862 32.573597
v 0.000000 0.000000 -20.876707
v 30.000000 0.000000 -20.876707
v 30.000000 16.276613 -20.876707
v 30.000000 2.941862 -20.876707
v 0.000000 52.947319 -30.000000
v 0.000000 52.947319 -20.876707
v 4.165920 52.947319 30.000000
v 30.000000 27.113241 30.000000
v 14.052195 50.980820 30.000000
v 22.433372 45.380695 30.000000
v 28.033497 36.999516 30.000000
v 30.000000 27.113241 -30.000000
v 4.165922 52.947319 -30.000000
v 28.033499 36.999516 -30.000000
v 22.433376 45.380695 -30.000000
v 14.052197 50.980820 -30.000000
v 30.000000 27.113243 -20.876707
v 4.165922 52.947319 -20.876707
v 28.033499 36.999516 -20.876707
v 22.433376 45.380692 -20.876707
v 14.052197 50.980816 -20.876707
v 0.000000 36.999516 30.000000
v 0.000000 0.000000 32.573597
v 30.000000 0.000000 32.573597
v 16.721420 33.537769 32.573597
v 30.000000 16.276613 32.573597
v 30.000000 2.941862 32.573597
v 18.789633 34.819294 32.573597
v 28.033497 36.999516 32.573597
v 0.000000 36.999516 32.573597
v 30.000000 27.113241 32.573597
v 8.206678 0.000000 32.573597
v 0.000000 21.953854 32.573597
v 8.175110 14.742689 32.573597
v 3.786483 20.552099 32.573597
v 7.638371 16.637058 32.573597
v 15.389139 32.446560 32.573597
v 14.602456 31.114279 32.573597
v 14.399444 29.337902 32.573597
v 14.377813 17.905687 32.573597
v 23.206833 17.926836 32.573597
v 23.207548 29.282812 32.573597
v 22.953775 31.211449 32.573597
v 22.217848 32.416843 32.573597
v 20.898252 33.546116 32.573597
v 16.674196 33.532036 34.415150
v 18.790768 34.819221 34.414562
v 15.338523 32.392494 34.348198
v 14.630975 31.167088 34.348633
v 14.382960 29.309460 34.414562
v 14.382865 17.928946 34.414555
v 23.198477 17.928946 34.414555
v 23.198477 29.318527 34.414555
v 22.950462 31.176157 34.348625
v 22.242916 32.401566 34.348194
v 20.865149 33.603348 34.335392
v 7.732071 16.261951 34.208164
v 8.220918 2.868891 34.200619
v 0.000000 0.000000 34.103035
v 8.220918 -0.000000 34.200619
v 0.000000 21.990955 34.210136
v 8.220918 14.786827 34.200619
v 3.864045 20.653408 34.200619
v 7.604349 16.647360 34.210136
v -30.000000 0.000000 30.000000
v -7.701512 16.276613 32.573597
v -30.000000 16.276613 30.000000
v -30.000000 16.276613 -30.000000
v -30.000000 2.941862 -30.000000
v -30.000000 2.941862 30.000000
v -8.206678 2.941862 32.573597
v -30.000000 0.000000 -20.876707
v -30.000000 16.276613 -20.876707
v -30.000000 2.941862 -20.876707
v -4.165920 52.947319 30.000000
v -30.000000 27.113241 30.000000
v -14.052195 50.980820 30.000000
v -22.433372 45.380695 30.000000
v -28.033497 36.999516 30.000000
v -30.000000 27.113241 -30.000000
v -4.165922 52.947319 -30.000000
v -28.033499 36.999516 -30.000000
v -22.433376 45.380695 -30.000000
v -14.052197 50.980820 -30.000000
v -30.000000 27.113243 -20.876707
v -4.165922 52.947319 -20.876707
v -28.033499 36.999516 -20.876707
v -22.433376 45.380692 -20.876707
v -14.052197 50.980816 -20.876707
v -30.000000 0.000000 32.573597
v -16.721420 33.537769 32.573597
v -30.000000 16.276613 32.573597
v -30.000000 2.941862 32.573597
v -18.789633 34.819294 32.573597
v -28.033497 36.999516 32.573597
v -30.000000 27.113241 32.573597
v -8.206678 0.000000 32.573597
v -8.175110 14.742689 32.573597
v -3.786483 20.552099 32.573597
v -7.638371 16.637058 32.573597
v -15.389139 32.446560 32.573597
v -14.602456 31.114279 32.573597
v -14.399444 29.337902 32.573597
v -14.377813 17.905687 32.573597
v -23.206833 17.926836 32.573597
v -23.207548 29.282812 32.573597
v -22.953775 31.211449 32.573597
v -22.217848 32.416843 32.573597
v -20.898252 33.546116 32.573597
v -16.674196 33.532036 34.415150
v -18.790768 34.819221 34.414562
v -15.338523 32.392494 34.348198
v -14.630975 31.167088 34.348633
v -14.382960 29.309460 34.414562
v -14.382865 17.928946 34.414555
v -23.198477 17.928946 34.414555
v -23.198477 29.318527 34.414555
v -22.950462 31.176157 34.348625
v -22.242916 32.401566 34.348194
v -20.865149 33.603348 34.335392
v -7.732071 16.261951 34.208164
v -8.220918 2.868891 34.200619
v -8.220918 -0.000000 34.200619
v -8.220918 14.786827 34.200619
v -3.864045 20.653408 34.200619
v -7.604349 16.647360 34.210136
vt 1.000000 1.000000
vt 1.000000 0.847945
vt 1.000000 0.847945
vt 1.000000 1.000000
vt 0.000000 1.000000
vt 1.000000 1.000000
vt 0.000000 1.000000
vt 1.000000 0.847945
vt 1.000000 0.000000
vt 1.000000 0.000000
vt 1.000000 0.000000
vt 0.000000 0.000000
vt 0.000000 0.000000
vt 0.273556 0.000000
vt 1.000000 0.000000
vt 1.000000 0.847945
vt 1.000000 0.847945
vt 0.000000 0.847945
vt 0.138864 0.117749
vt 0.000000 0.000000
vt 0.000000 1.000000
vt 0.138864 1.000000
vt 1.000000 0.000000
vt 1.000000 0.000000
vt 1.000000 0.000000
vt 0.978150 1.000000
vt 0.915926 1.000000
vt 0.468407 1.000000
vt 0.468407 0.397183
vt 1.000000 0.847945
vt 1.000000 0.847945
vt 0.138864 0.000000
vt 0.468407 0.000000
vt 0.915926 0.000000
vt 0.978150 0.000000
vt 0.000000 0.000000
vt 0.000000 0.000000
vt 1.000000 0.000000
vt 0.273556 0.000000
vt 0.272504 0.000000
vt 0.256717 0.000000
vt 0.789560 0.000000
vt 0.785892 0.000000
vt 0.764059 0.000000
vt 0.721548 0.000000
vt 0.651260 0.000000
vt 0.577381 0.000000
vt 0.529708 0.000000
vt 0.500814 0.000000
vt 0.491651 0.000000
vt 0.480475 0.000000
vt 0.254816 0.000000
vt 0.127404 0.000000
vt 0.000000 0.000000
vt 0.000000 0.000000
vt 0.978150 0.000000
vt 0.774805 0.000000
vt 0.789560 0.000000
vt 0.785892 0.000000
vt 0.529708 0.000000
vt 0.500814 0.000000
vt 0.764059 0.000000
vt 0.491651 0.000000
vt 0.480475 0.000000
vt 0.774805 0.000000
vt 0.577381 0.000000
vt 0.721548 0.000000
vt 0.651260 0.000000
vt 0.256717 0.000000
vt 0.254816 0.000000
vt 0.127404 0.000000
vt 0.000000 0.000000
vt 0.000000 0.000000
vt 0.273556 0.000000
vt 0.273556 0.000000
vt 0.272504 0.000000
vt 1.000000 1.000000
vt 1.000000 1.000000
vt 1.000000 0.847945
vt 1.000000 0.847945
vt 1.000000 1.000000
vt 1.000000 0.847945
vt 1.000000 0.000000
vt 1.000000 0.000000
vt 1.000000 0.000000
vt 1.000000 0.000000
vt 0.273556 0.000000
vt 1.000000 0.847945
vt 0.138864 0.117749
vt 0.138864 1.000000
vt 1.000000 0.000000
vt 1.000000 0.000000
vt 1.000000 0.000000
vt 0.468407 1.000000
vt 0.915926 1.000000
vt 0.978150 1.000000
vt 0.468407 0.397183
vt 1.000000 0.847945
vt 1.000000 0.847945
vt 0.138864 0.000000
vt 0.468407 0.000000
vt 0.915926 0.000000
vt 0.978150 0.000000
vt 1.000000 0.000000
vt 0.256717 0.000000
vt 0.272504 0.000000
vt 0.273556 0.000000
vt 0.978150 0.000000
vt 0.127404 0.000000
vt 0.254816 0.000000
vt 0.480475 0.000000
vt 0.491651 0.000000
vt 0.500814 0.000000
vt 0.529708 0.000000
vt 0.577381 0.000000
vt 0.651260 0.000000
vt 0.721548 0.000000
vt 0.764059 0.000000
vt 0.785892 0.000000
vt 0.789560 0.000000
vt 0.774805 0.000000
vt 0.785892 0.000000
vt 0.789560 0.000000
vt 0.500814 0.000000
vt 0.529708 0.000000
vt 0.764059 0.000000
vt 0.480475 0.000000
vt 0.491651 0.000000
vt 0.774805 0.000000
vt 0.577381 0.000000
vt 0.721548 0.000000
vt 0.651260 0.000000
vt 0.254816 0.000000
vt 0.256717 0.000000
vt 0.127404 0.000000
vt 0.273556 0.000000
vt 0.272504 0.000000
vt 0.273556 0.000000
vn -1.0000 0.0000 0.0000
vn 0.0000 0.0000 1.0000
vn 0.0000 1.0000 -0.0000
vn 0.0000 -1.0000 0.0000
vn -0.1951 -0.9808 0.0000
vn -0.5556 -0.8315 0.0000
vn -0.8315 -0.5556 -0.0000
vn -0.9808 -0.1951 0.0000
vn -0.0000 0.0000 -1.0000
vn -0.9913 -0.1314 -0.0034
vn 0.8634 -0.5044 0.0052
vn -0.8598 -0.5106 -0.0020
vn 1.0000 -0.0010 0.0031
vn -0.0012 1.0000 -0.0069
vn 0.6414 -0.7672 0.0047
vn 0.9924 -0.1232 -0.0025
vn -0.6539 -0.7566 0.0075
vn -1.0000 0.0000 -0.0047
vn 0.5231 -0.8522 0.0052
vn -0.5112 -0.8594 0.0091
vn -0.9688 -0.2479 -0.0014
vn -0.3367 -0.9404 0.0479
vn -0.9998 -0.0013 0.0184
vn -0.7216 -0.6916 0.0333
vn -1.0000 0.0000 0.0088
vn -0.9521 -0.3046 0.0250
vn 1.0000 0.0000 0.0000
vn 0.1951 -0.9808 0.0000
vn 0.5556 -0.8315 0.0000
vn 0.8315 -0.5556 -0.0000
vn 0.9808 -0.1951 0.0000
vn 0.9913 -0.1314 -0.0034
vn -0.8634 -0.5044 0.0052
vn 0.8598 -0.5106 -0.0020
vn -1.0000 -0.0010 0.0031
vn 0.0012 1.0000 -0.0069
vn -0.6414 -0.7672 0.0047
vn -0.9924 -0.1232 -0.0025
vn 0.6539 -0.7566 0.0075
vn 1.0000 0.0000 -0.0047
vn -0.5231 -0.8522 0.0052
vn 0.5112 -0.8594 0.0091
vn 0.9688 -0.2479 -0.0014
vn 0.3367 -0.9404 0.0479
vn 0.9998 -0.0013 0.0184
vn 0.7216 -0.6916 0.0333
vn 1.0000 0.0000 0.0088
vn 0.9521 -0.3046 0.0250
usemtl None
s off
f 8/1/1 15/2/1 29/3/1 24/4/1
f 9/5/2 10/6/2 8/1/2 7/7/2
f 16/8/1 11/9/1 6/10/1 15/2/1
f 2/11/3 1/12/3 35/13/3 44/14/3 36/15/3
f 14/16/1 2/11/1 11/9/1 16/8/1
f 3/17/2 13/18/2 14/16/2 16/8/2
f 3/17/3 16/8/3 10/6/3 9/5/3
f 10/6/1 16/8/1 15/2/1 8/1/1
f 1/12/3 2/11/3 14/16/3 13/18/3
f 30/19/4 18/20/4 17/21/4 25/22/4
f 20/23/1 6/10/1 38/24/1 43/25/1
f 15/2/1 6/10/1 20/23/1 29/3/1
f 7/7/2 8/1/2 24/4/2 26/26/2 27/27/2 28/28/2 25/22/2 17/21/2
f 30/19/5 25/22/5 28/28/5 33/29/5
f 33/29/6 28/28/6 27/27/6 32/30/6
f 32/30/7 27/27/7 26/26/7 31/31/7
f 31/31/8 26/26/8 24/4/8 29/3/8
f 19/32/5 30/19/5 33/29/5 21/33/5
f 21/33/6 33/29/6 32/30/6 22/34/6
f 22/34/7 32/30/7 31/31/7 23/35/7
f 23/35/8 31/31/8 29/3/8 20/23/8
f 18/20/4 30/19/4 19/32/4 4/36/4
f 34/37/9 4/36/9 19/32/9 21/33/9 22/34/9 23/35/9
f 39/38/9 12/39/9 46/40/9 5/41/9 38/24/9
f 36/15/9 44/14/9 12/39/9 39/38/9
f 43/25/9 54/42/9 55/43/9 56/44/9 57/45/9 40/46/9 37/47/9 49/48/9 50/49/9 51/50/9 52/51/9 48/52/9 47/53/9 45/54/9 42/55/9 41/56/9
f 23/35/8 20/23/8 43/25/8 41/56/8
f 6/10/1 11/9/1 39/38/1 38/24/1
f 34/37/4 23/35/4 41/56/4 42/55/4
f 11/9/1 2/11/1 36/15/1 39/38/1
f 5/41/9 48/52/9 52/51/9 53/57/9 54/42/9 43/25/9 38/24/9
f 55/43/10 54/42/10 65/58/10 66/59/10
f 50/49/11 49/48/11 60/60/11 61/61/11
f 56/44/12 55/43/12 66/59/12 67/62/12
f 52/51/13 51/50/13 62/63/13 63/64/13
f 53/57/14 52/51/14 63/64/14 64/65/14
f 49/48/15 37/47/15 58/66/15 60/60/15
f 51/50/16 50/49/16 61/61/16 62/63/16
f 57/45/17 56/44/17 67/62/17 68/67/17
f 54/42/18 53/57/18 64/65/18 65/58/18
f 37/47/19 40/46/19 59/68/19 58/66/19
f 40/46/20 57/45/20 68/67/20 59/68/20
f 48/52/21 5/41/21 69/69/21 76/70/21
f 45/54/22 47/53/22 75/71/22 73/72/22
f 44/14/3 35/13/3 71/73/3 72/74/3
f 46/40/23 12/39/23 70/75/23 74/76/23
f 47/53/24 48/52/24 76/70/24 75/71/24
f 12/39/25 44/14/25 72/74/25 70/75/25
f 5/41/26 46/40/26 74/76/26 69/69/26
f 80/77/27 92/78/27 97/79/27 85/80/27
f 9/5/2 7/7/2 80/77/2 81/81/2
f 86/82/27 85/80/27 79/83/27 82/84/27
f 77/85/3 102/86/3 109/87/3 35/13/3 1/12/3
f 84/88/27 86/82/27 82/84/27 77/85/27
f 3/17/2 86/82/2 84/88/2 13/18/2
f 3/17/3 9/5/3 81/81/3 86/82/3
f 81/81/27 80/77/27 85/80/27 86/82/27
f 1/12/3 13/18/3 84/88/3 77/85/3
f 98/89/4 93/90/4 17/21/4 18/20/4
f 88/91/27 108/92/27 104/93/27 79/83/27
f 85/80/27 97/79/27 88/91/27 79/83/27
f 7/7/2 17/21/2 93/90/2 96/94/2 95/95/2 94/96/2 92/78/2 80/77/2
f 98/89/28 101/97/28 96/94/28 93/90/28
f 101/97/29 100/98/29 95/95/29 96/94/29
f 100/98/30 99/99/30 94/96/30 95/95/30
f 99/99/31 97/79/31 92/78/31 94/96/31
f 87/100/28 89/101/28 101/97/28 98/89/28
f 89/101/29 90/102/29 100/98/29 101/97/29
f 90/102/30 91/103/30 99/99/30 100/98/30
f 91/103/31 88/91/31 97/79/31 99/99/31
f 18/20/4 4/36/4 87/100/4 98/89/4
f 34/37/9 91/103/9 90/102/9 89/101/9 87/100/9 4/36/9
f 105/104/9 104/93/9 78/105/9 110/106/9 83/107/9
f 102/86/9 105/104/9 83/107/9 109/87/9
f 108/92/9 107/108/9 42/55/9 45/54/9 111/109/9 112/110/9 116/111/9 115/112/9 114/113/9 113/114/9 103/115/9 106/116/9 121/117/9 120/118/9 119/119/9 118/120/9
f 91/103/31 107/108/31 108/92/31 88/91/31
f 79/83/27 104/93/27 105/104/27 82/84/27
f 34/37/4 42/55/4 107/108/4 91/103/4
f 82/84/27 105/104/27 102/86/27 77/85/27
f 78/105/9 104/93/9 108/92/9 118/120/9 117/121/9 116/111/9 112/110/9
f 119/119/32 130/122/32 129/123/32 118/120/32
f 114/113/33 125/124/33 124/125/33 113/114/33
f 120/118/34 131/126/34 130/122/34 119/119/34
f 116/111/35 127/127/35 126/128/35 115/112/35
f 117/121/36 128/129/36 127/127/36 116/111/36
f 113/114/37 124/125/37 122/130/37 103/115/37
f 115/112/38 126/128/38 125/124/38 114/113/38
f 121/117/39 132/131/39 131/126/39 120/118/39
f 118/120/40 129/123/40 128/129/40 117/121/40
f 103/115/41 122/130/41 123/132/41 106/116/41
f 106/116/42 123/132/42 132/131/42 121/117/42
f 112/110/43 138/133/43 133/134/43 78/105/43
f 45/54/44 73/72/44 137/135/44 111/109/44
f 109/87/3 135/136/3 71/73/3 35/13/3
f 110/106/45 136/137/45 134/138/45 83/107/45
f 111/109/46 137/135/46 138/133/46 112/110/46
f 83/107/47 134/138/47 135/136/47 109/87/47
f 78/105/48 133/134/48 136/137/48 110/106/48
