# Blender v3.0.1 OBJ File: 'churchFull.blend'
# www.blender.org
mtllib churchInterior.mtl
o interior_Plane
v 0.000000 0.000000 30.000000
v 30.000000 0.000000 30.000000
v 0.000000 2.941862 -20.876707
v 0.000000 52.947319 30.000000
v 7.701512 16.276613 32.573597
v 30.000000 16.276613 30.000000
v 0.000000 16.276613 -30.000000
v 30.000000 16.276613 -30.000000
v 0.000000 2.941862 -30.000000
v 30.000000 2.941862 -30.000000
v 30.000000 2.941862 30.000000
v 8.206678 2.941862 32.573597
v 0.000000 0.000000 -20.876707
v 30.000000 0.000000 -20.876707
v 30.000000 16.276613 -20.876707
v 30.000000 2.941862 -20.876707
v 0.000000 52.947319 -30.000000
v 0.000000 52.947319 -20.876707
v 4.165920 52.947319 30.000000
v 30.000000 27.113241 30.000000
v 14.052195 50.980820 30.000000
v 22.433372 45.380695 30.000000
v 28.033497 36.999516 30.000000
v 30.000000 27.113241 -30.000000
v 4.165922 52.947319 -30.000000
v 28.033499 36.999516 -30.000000
v 22.433376 45.380695 -30.000000
v 14.052197 50.980820 -30.000000
v 30.000000 27.113243 -20.876707
v 4.165922 52.947319 -20.876707
v 28.033499 36.999516 -20.876707
v 22.433376 45.380692 -20.876707
v 14.052197 50.980816 -20.876707
v 0.000000 36.999516 30.000000
v 0.000000 0.000000 32.573597
v 30.000000 0.000000 32.573597
v 16.721420 33.537769 32.573597
v 30.000000 16.276613 32.573597
v 30.000000 2.941862 32.573597
v 18.789633 34.819294 32.573597
v 28.033497 36.999516 32.573597
v 0.000000 36.999516 32.573597
v 30.000000 27.113241 32.573597
v 8.206678 0.000000 32.573597
v 0.000000 21.953854 32.573597
v 8.175110 14.742689 32.573597
v 3.786483 20.552099 32.573597
v 7.638371 16.637058 32.573597
v 15.389139 32.446560 32.573597
v 14.602456 31.114279 32.573597
v 14.399444 29.337902 32.573597
v 14.377813 17.905687 32.573597
v 23.206833 17.926836 32.573597
v 23.207548 29.282812 32.573597
v 22.953775 31.211449 32.573597
v 22.217848 32.416843 32.573597
v 20.898252 33.546116 32.573597
v 16.674196 33.532036 34.415150
v 18.790768 34.819221 34.414562
v 15.338523 32.392494 34.348198
v 14.630975 31.167088 34.348633
v 14.382960 29.309460 34.414562
v 14.382865 17.928946 34.414555
v 23.198477 17.928946 34.414555
v 23.198477 29.318527 34.414555
v 22.950462 31.176157 34.348625
v 22.242916 32.401566 34.348194
v 20.865149 33.603348 34.335392
v 7.732071 16.261951 34.208164
v 8.220918 2.868891 34.200619
v 0.000000 0.000000 34.103035
v 8.220918 -0.000000 34.200619
v 0.000000 21.990955 34.210136
v 8.220918 14.786827 34.200619
v 3.864045 20.653408 34.200619
v 7.604349 16.647360 34.210136
v -30.000000 0.000000 30.000000
v -7.701512 16.276613 32.573597
v -30.000000 16.276613 30.000000
v -30.000000 16.276613 -30.000000
v -30.000000 2.941862 -30.000000
v -30.000000 2.941862 30.000000
v -8.206678 2.941862 32.573597
v -30.000000 0.000000 -20.876707
v -30.000000 16.276613 -20.876707
v -30.000000 2.941862 -20.876707
v -4.165920 52.947319 30.000000
v -30.000000 27.113241 30.000000
v -14.052195 50.980820 30.000000
v -22.433372 45.380695 30.000000
v -28.033497 36.999516 30.000000
v -30.000000 27.113241 -30.000000
v -4.165922 52.947319 -30.000000
v -28.033499 36.999516 -30.000000
v -22.433376 45.380695 -30.000000
v -14.052197 50.980820 -30.000000
v -30.000000 27.113243 -20.876707
v -4.165922 52.947319 -20.876707
v -28.033499 36.999516 -20.876707
v -22.433376 45.380692 -20.876707
v -14.052197 50.980816 -20.876707
v -30.000000 0.000000 32.573597
v -16.721420 33.537769 32.573597
v -30.000000 16.276613 32.573597
v -30.000000 2.941862 32.573597
v -18.789633 34.819294 32.573597
v -28.033497 36.999516 32.573597
v -30.000000 27.113241 32.573597
v -8.206678 0.000000 32.573597
v -8.175110 14.742689 32.573597
v -3.786483 20.552099 32.573597
v -7.638371 16.637058 32.573597
v -15.389139 32.446560 32.573597
v -14.602456 31.114279 32.573597
v -14.399444 29.337902 32.573597
v -14.377813 17.905687 32.573597
v -23.206833 17.926836 32.573597
v -23.207548 29.282812 32.573597
v -22.953775 31.211449 32.573597
v -22.217848 32.416843 32.573597
v -20.898252 33.546116 32.573597
v -16.674196 33.532036 34.415150
v -18.790768 34.819221 34.414562
v -15.338523 32.392494 34.348198
v -14.630975 31.167088 34.348633
v -14.382960 29.309460 34.414562
v -14.382865 17.928946 34.414555
v -23.198477 17.928946 34.414555
v -23.198477 29.318527 34.414555
v -22.950462 31.176157 34.348625
v -22.242916 32.401566 34.348194
v -20.865149 33.603348 34.335392
v -7.732071 16.261951 34.208164
v -8.220918 2.868891 34.200619
v -8.220918 -0.000000 34.200619
v -8.220918 14.786827 34.200619
v -3.864045 20.653408 34.200619
v -7.604349 16.647360 34.210136
vt 0.491218 0.081173
vt 0.395036 0.000198
vt 0.491218 0.000198
vt 0.000198 0.999802
vt 0.266466 0.881448
vt 0.266466 0.999802
vt 0.609572 0.532735
vt 0.609572 0.081173
vt 0.902347 0.558846
vt 0.902347 0.581688
vt 0.829507 0.581688
vt 0.635683 0.532735
vt 0.635683 0.081173
vt 0.902347 0.107284
vt 0.636079 0.081173
vt 0.902347 0.081173
vt 0.902347 0.000198
vt 0.609572 0.000198
vt 0.636079 0.558846
vt 0.000198 0.081173
vt 0.037173 0.000198
vt 0.037173 0.081173
vt 0.491218 0.532735
vt 0.395036 0.555577
vt 0.395036 0.532735
vt 0.395036 0.081173
vt 0.141744 0.573427
vt 0.229491 0.555973
vt 0.126639 0.081173
vt 0.126639 0.000198
vt 0.216105 0.081173
vt 0.216105 0.000198
vt 0.305571 0.081173
vt 0.305571 0.000198
vt 0.126639 0.532735
vt 0.037173 0.532735
vt 0.216105 0.532735
vt 0.305570 0.532735
vt 0.000198 0.532735
vt 0.783014 0.721246
vt 0.733309 0.795634
vt 0.658921 0.596525
vt 0.344769 0.755258
vt 0.340560 0.741441
vt 0.538797 0.741453
vt 0.345458 0.886071
vt 0.538891 0.859847
vt 0.538906 0.885960
vt 0.421080 0.587700
vt 0.409188 0.597375
vt 0.272639 0.555973
vt 0.305570 0.555577
vt 0.491218 0.555577
vt 0.658921 0.845339
vt 0.636079 0.596525
vt 0.609572 0.555577
vt 0.478361 0.726779
vt 0.538906 0.645197
vt 0.539302 0.656764
vt 0.555057 0.673723
vt 0.539302 0.674030
vt 0.572455 0.673310
vt 0.556686 0.686380
vt 0.556700 0.673821
vt 0.555093 0.686282
vt 0.539343 0.686565
vt 0.572442 0.555973
vt 0.556098 0.657188
vt 0.556102 0.556179
vt 0.572851 0.555973
vt 0.589192 0.634262
vt 0.572852 0.634336
vt 0.572437 0.687043
vt 0.556083 0.701963
vt 0.572438 0.657441
vt 0.539368 0.701980
vt 0.555007 0.702509
vt 0.555687 0.555999
vt 0.555642 0.657089
vt 0.572429 0.702327
vt 0.556115 0.723950
vt 0.539348 0.723842
vt 0.555687 0.723850
vt 0.339205 0.737722
vt 0.329103 0.746395
vt 0.328413 0.745316
vt 0.305074 0.702806
vt 0.266862 0.701264
vt 0.272157 0.689135
vt 0.902347 0.595263
vt 0.829381 0.596129
vt 0.345440 0.860011
vt 0.331292 0.756657
vt 0.297276 0.714261
vt 0.331148 0.860653
vt 0.395036 0.000198
vt 0.491218 0.081173
vt 0.491218 0.000198
vt 0.000198 0.999802
vt 0.609572 0.532735
vt 0.609572 0.081173
vt 0.829507 0.581688
vt 0.635683 0.532735
vt 0.635683 0.081173
vt 0.636079 0.081173
vt 0.609572 0.000198
vt 0.636079 0.558846
vt 0.037173 0.000198
vt 0.037173 0.081173
vt 0.395036 0.555577
vt 0.491218 0.532735
vt 0.395036 0.532735
vt 0.395036 0.081173
vt 0.017652 0.697520
vt 0.000198 0.785266
vt 0.126639 0.081173
vt 0.216105 0.081173
vt 0.126639 0.000198
vt 0.305571 0.081173
vt 0.216105 0.000198
vt 0.305571 0.000198
vt 0.126639 0.532735
vt 0.037173 0.532735
vt 0.216105 0.532735
vt 0.305570 0.532735
vt 0.783014 0.721246
vt 0.800467 0.633500
vt 0.538797 0.741453
vt 0.340560 0.741441
vt 0.344769 0.755258
vt 0.538891 0.859847
vt 0.345458 0.886071
vt 0.538906 0.885960
vt 0.421080 0.587700
vt 0.439522 0.576366
vt 0.305570 0.555577
vt 0.491218 0.555577
vt 0.658921 0.845339
vt 0.609572 0.555577
vt 0.538906 0.645197
vt 0.478607 0.625768
vt 0.478361 0.726779
vt 0.555057 0.673723
vt 0.539302 0.656764
vt 0.539302 0.674030
vt 0.572455 0.673310
vt 0.556686 0.686380
vt 0.572437 0.687043
vt 0.555093 0.686282
vt 0.539343 0.686565
vt 0.572442 0.555973
vt 0.556098 0.657188
vt 0.572438 0.657441
vt 0.589192 0.634262
vt 0.572851 0.555973
vt 0.572852 0.634336
vt 0.556083 0.701963
vt 0.572429 0.702327
vt 0.556700 0.673821
vt 0.539368 0.701980
vt 0.555687 0.555999
vt 0.539348 0.555973
vt 0.556115 0.723950
vt 0.572455 0.723922
vt 0.539348 0.723842
vt 0.555007 0.702509
vt 0.339205 0.737722
vt 0.329103 0.746395
vt 0.305074 0.702806
vt 0.331292 0.756657
vt 0.345440 0.860011
vt 0.328413 0.745316
vt 0.331148 0.860653
vt 0.000198 0.881448
vt 0.636079 0.581688
vt 0.636079 0.107284
vt 0.636079 0.000198
vt 0.000198 0.000198
vt 0.266466 0.555973
vt 0.000198 0.785266
vt 0.017652 0.697520
vt 0.067356 0.623131
vt 0.800467 0.596525
vt 0.800467 0.633500
vt 0.521749 0.557389
vt 0.476428 0.608612
vt 0.478607 0.625768
vt 0.399678 0.726890
vt 0.400253 0.625053
vt 0.469921 0.597868
vt 0.458226 0.587776
vt 0.402135 0.609222
vt 0.439522 0.576366
vt 0.636079 0.845339
vt 0.635683 0.555577
vt 0.589192 0.556018
vt 0.539348 0.555973
vt 0.572455 0.723922
vt 0.331068 0.886026
vt 0.000198 0.881448
vt 0.636079 0.581688
vt 0.636079 0.107284
vt 0.636079 0.000198
vt 0.229491 0.555973
vt 0.141744 0.573427
vt 0.067356 0.623131
vt 0.733309 0.795634
vt 0.476428 0.608612
vt 0.521749 0.557389
vt 0.399678 0.726890
vt 0.400253 0.625053
vt 0.469921 0.597868
vt 0.402135 0.609222
vt 0.458226 0.587776
vt 0.409188 0.597375
vt 0.636079 0.845339
vt 0.635683 0.555577
vt 0.555642 0.657089
vt 0.556102 0.556179
vt 0.589192 0.556018
vt 0.555687 0.723850
vt 0.297276 0.714261
vt 0.829381 0.596129
vt 0.331068 0.886026
vn -1.0000 0.0000 0.0000
vn 0.0000 0.0000 1.0000
vn 0.0000 1.0000 -0.0000
vn 0.0000 -1.0000 0.0000
vn -0.1951 -0.9808 0.0000
vn -0.5556 -0.8315 0.0000
vn -0.8315 -0.5556 -0.0000
vn -0.9808 -0.1951 0.0000
vn 0.0000 0.0000 -1.0000
vn -0.9914 -0.1305 -0.0044
vn 0.8660 -0.5000 0.0010
vn -0.8535 -0.5211 0.0076
vn 1.0000 -0.0000 -0.0027
vn -0.0024 1.0000 -0.0012
vn 0.6492 -0.7606 -0.0047
vn 0.9912 -0.1321 0.0068
vn -0.6574 -0.7535 0.0121
vn -1.0000 0.0000 -0.0049
vn 0.5196 -0.8544 0.0107
vn -0.5057 -0.8627 0.0003
vn -0.9491 -0.3144 -0.0178
vn -0.3471 -0.9376 0.0213
vn -0.9996 -0.0027 0.0282
vn -0.7288 -0.6803 0.0771
vn -1.0000 0.0000 0.0088
vn -0.9491 -0.3146 0.0149
vn 1.0000 0.0000 0.0000
vn 0.1951 -0.9808 0.0000
vn 0.5556 -0.8315 0.0000
vn 0.8315 -0.5556 -0.0000
vn 0.9808 -0.1951 0.0000
vn 0.9914 -0.1305 -0.0044
vn -0.8611 -0.5084 0.0091
vn 0.8535 -0.5211 0.0076
vn -1.0000 -0.0019 0.0089
vn 0.0024 1.0000 -0.0012
vn -0.6336 -0.7736 0.0138
vn -0.9935 -0.1135 -0.0126
vn 0.6502 -0.7598 0.0026
vn 1.0000 0.0001 -0.0045
vn -0.5267 -0.8500 -0.0004
vn 0.5168 -0.8559 0.0181
vn 0.9849 -0.1725 0.0169
vn 0.3471 -0.9376 0.0213
vn 0.9996 -0.0027 0.0282
vn 0.7128 -0.7013 -0.0104
vn 1.0000 0.0000 0.0088
vn 0.9549 -0.2948 0.0349
vn -0.9912 -0.1324 -0.0023
vn 0.8611 -0.5084 0.0091
vn -0.8660 -0.5000 -0.0116
vn 1.0000 -0.0019 0.0089
vn 0.0000 0.9999 -0.0126
vn 0.6336 -0.7736 0.0138
vn 0.9935 -0.1135 -0.0126
vn -0.6502 -0.7598 0.0026
vn -1.0000 0.0001 -0.0045
vn 0.5267 -0.8500 -0.0004
vn -0.5168 -0.8559 0.0181
vn -0.9849 -0.1725 0.0169
vn -0.3260 -0.9424 0.0742
vn -0.7128 -0.7013 -0.0104
vn -0.9549 -0.2948 0.0349
vn 0.9912 -0.1324 -0.0023
vn -0.8660 -0.5000 0.0010
vn 0.8659 -0.5000 -0.0116
vn -1.0000 -0.0000 -0.0027
vn -0.6492 -0.7606 -0.0047
vn -0.9912 -0.1321 0.0068
vn 0.6574 -0.7535 0.0121
vn 1.0000 0.0000 -0.0049
vn -0.5196 -0.8544 0.0107
vn 0.5057 -0.8627 0.0003
vn 0.9491 -0.3144 -0.0178
vn 0.3260 -0.9424 0.0742
vn 0.7288 -0.6803 0.0771
vn 0.9491 -0.3146 0.0149
usemtl stoneMaterial
s off
f 15/1/1 24/2/1 8/3/1
f 10/4/2 7/5/2 9/6/2
f 11/7/1 15/1/1 16/8/1
f 1/9/3 35/10/3 44/11/3
f 2/12/1 16/8/1 14/13/1
f 13/14/2 16/15/2 3/16/2
f 16/15/3 9/17/3 3/16/3
f 16/8/1 8/3/1 10/18/1
f 2/19/3 13/14/3 1/9/3
f 18/20/4 25/21/4 30/22/4
f 6/23/1 43/24/1 20/25/1
f 6/23/1 29/26/1 15/1/1
f 28/27/2 25/28/2 7/5/2
f 25/21/5 33/29/5 30/22/5
f 28/30/6 32/31/6 33/29/6
f 27/32/7 31/33/7 32/31/7
f 26/34/8 29/26/8 31/33/8
f 30/22/5 21/35/5 19/36/5
f 33/29/6 22/37/6 21/35/6
f 32/31/7 23/38/7 22/37/7
f 31/33/8 20/25/8 23/38/8
f 30/22/4 4/39/4 18/20/4
f 21/40/9 22/41/9 34/42/9
f 46/43/9 5/44/9 38/45/9
f 44/46/9 39/47/9 36/48/9
f 37/49/9 49/50/9 42/51/9
f 20/25/8 41/52/8 23/38/8
f 11/7/1 38/53/1 6/23/1
f 23/54/4 42/55/4 34/42/4
f 2/12/1 39/56/1 11/7/1
f 53/57/9 43/58/9 38/45/9
f 54/59/10 66/60/10 55/61/10
f 50/62/11 60/63/11 61/64/11
f 55/61/12 67/65/12 56/66/12
f 52/67/13 62/68/13 63/69/13
f 52/70/14 64/71/14 53/72/14
f 49/73/15 58/74/15 60/63/15
f 51/75/16 61/64/16 62/68/16
f 57/76/17 67/65/17 68/77/17
f 54/59/18 64/78/18 65/79/18
f 37/80/19 59/81/19 58/74/19
f 40/82/20 68/77/20 59/83/20
f 48/84/21 69/85/21 76/86/21
f 47/87/22 73/88/22 45/89/22
f 44/11/3 71/90/3 72/91/3
f 12/92/23 74/93/23 46/43/23
f 47/87/24 76/86/24 75/94/24
f 44/46/25 70/95/25 12/92/25
f 5/44/26 74/93/26 69/85/26
f 92/96/27 85/97/27 80/98/27
f 7/5/2 81/99/2 9/6/2
f 85/97/27 82/100/27 86/101/27
f 109/102/3 35/10/3 1/9/3
f 86/101/27 77/103/27 84/104/27
f 86/105/2 13/14/2 3/16/2
f 9/17/3 86/105/3 3/16/3
f 80/98/27 86/101/27 81/106/27
f 13/14/3 77/107/3 1/9/3
f 93/108/4 18/20/4 98/109/4
f 108/110/27 79/111/27 88/112/27
f 97/113/27 79/111/27 85/97/27
f 94/114/2 92/115/2 7/5/2
f 101/116/28 93/108/28 98/109/28
f 100/117/29 96/118/29 101/116/29
f 99/119/30 95/120/30 100/117/30
f 97/113/31 94/121/31 99/119/31
f 89/122/28 98/109/28 87/123/28
f 90/124/29 101/116/29 89/122/29
f 91/125/30 100/117/30 90/124/30
f 88/112/31 99/119/31 91/125/31
f 4/39/4 98/109/4 18/20/4
f 89/126/9 87/127/9 34/42/9
f 104/128/9 78/129/9 110/130/9
f 105/131/9 109/132/9 102/133/9
f 42/51/9 103/134/9 106/135/9
f 107/136/31 88/112/31 91/125/31
f 104/137/27 82/100/27 79/111/27
f 42/55/4 91/138/4 34/42/4
f 105/139/27 77/103/27 82/100/27
f 108/140/9 118/141/9 117/142/9
f 130/143/32 118/144/32 119/145/32
f 114/146/33 124/147/33 113/148/33
f 131/149/34 119/145/34 120/150/34
f 116/151/35 126/152/35 115/153/35
f 128/154/36 116/155/36 117/156/36
f 113/148/37 122/157/37 103/158/37
f 115/153/38 125/159/38 114/146/38
f 121/160/39 131/149/39 120/150/39
f 118/144/40 128/161/40 117/162/40
f 103/158/41 123/163/41 106/164/41
f 106/165/42 132/166/42 121/160/42
f 112/167/43 133/168/43 78/129/43
f 73/88/44 111/169/44 45/89/44
f 109/102/3 71/90/3 35/10/3
f 136/170/45 83/171/45 110/130/45
f 111/169/46 138/172/46 112/167/46
f 134/173/47 109/132/47 83/171/47
f 78/129/48 136/170/48 110/130/48
f 15/1/1 29/26/1 24/2/1
f 10/4/2 8/174/2 7/5/2
f 11/7/1 6/23/1 15/1/1
f 36/175/3 2/19/3 44/11/3
f 2/19/3 1/9/3 44/11/3
f 2/12/1 11/7/1 16/8/1
f 13/14/2 14/176/2 16/15/2
f 16/15/3 10/177/3 9/17/3
f 16/8/1 15/1/1 8/3/1
f 2/19/3 14/176/3 13/14/3
f 18/20/4 17/178/4 25/21/4
f 6/23/1 38/53/1 43/24/1
f 6/23/1 20/25/1 29/26/1
f 17/179/2 7/5/2 25/28/2
f 7/5/2 8/174/2 24/180/2
f 26/181/2 7/5/2 24/180/2
f 26/181/2 27/182/2 7/5/2
f 27/182/2 28/27/2 7/5/2
f 25/21/5 28/30/5 33/29/5
f 28/30/6 27/32/6 32/31/6
f 27/32/7 26/34/7 31/33/7
f 26/34/8 24/2/8 29/26/8
f 30/22/5 33/29/5 21/35/5
f 33/29/6 32/31/6 22/37/6
f 32/31/7 31/33/7 23/38/7
f 31/33/8 29/26/8 20/25/8
f 30/22/4 19/36/4 4/39/4
f 23/54/9 34/42/9 22/41/9
f 34/42/9 4/183/9 19/184/9
f 21/40/9 34/42/9 19/184/9
f 38/45/9 39/47/9 46/43/9
f 39/47/9 12/92/9 46/43/9
f 44/46/9 12/92/9 39/47/9
f 41/185/9 43/58/9 55/186/9
f 43/58/9 54/187/9 55/186/9
f 47/87/9 45/89/9 42/51/9
f 52/188/9 48/84/9 47/87/9
f 51/189/9 52/188/9 47/87/9
f 41/185/9 55/186/9 56/190/9
f 41/185/9 56/190/9 57/191/9
f 51/189/9 47/87/9 42/51/9
f 50/192/9 51/189/9 42/51/9
f 41/185/9 57/191/9 40/193/9
f 42/51/9 41/185/9 40/193/9
f 49/50/9 50/192/9 42/51/9
f 42/51/9 40/193/9 37/49/9
f 20/25/8 43/24/8 41/52/8
f 11/7/1 39/56/1 38/53/1
f 23/54/4 41/194/4 42/55/4
f 2/12/1 36/195/1 39/56/1
f 38/45/9 5/44/9 52/188/9
f 5/44/9 48/84/9 52/188/9
f 38/45/9 52/188/9 53/57/9
f 53/57/9 54/187/9 43/58/9
f 54/59/49 65/79/49 66/60/49
f 50/62/50 49/73/50 60/63/50
f 55/61/51 66/60/51 67/65/51
f 52/67/52 51/75/52 62/68/52
f 52/70/53 63/196/53 64/71/53
f 49/73/54 37/80/54 58/74/54
f 51/75/55 50/62/55 61/64/55
f 57/76/56 56/66/56 67/65/56
f 54/59/57 53/197/57 64/78/57
f 37/80/58 40/198/58 59/81/58
f 40/82/59 57/76/59 68/77/59
f 48/84/60 5/44/60 69/85/60
f 47/87/61 75/94/61 73/88/61
f 44/11/3 35/10/3 71/90/3
f 12/92/25 70/95/25 74/93/25
f 47/87/62 48/84/62 76/86/62
f 44/46/25 72/199/25 70/95/25
f 5/44/63 46/43/63 74/93/63
f 92/96/27 97/113/27 85/97/27
f 7/5/2 80/200/2 81/99/2
f 85/97/27 79/111/27 82/100/27
f 1/9/3 77/107/3 109/102/3
f 77/107/3 102/201/3 109/102/3
f 86/101/27 82/100/27 77/103/27
f 86/105/2 84/202/2 13/14/2
f 9/17/3 81/203/3 86/105/3
f 80/98/27 85/97/27 86/101/27
f 13/14/3 84/202/3 77/107/3
f 93/108/4 17/178/4 18/20/4
f 108/110/27 104/137/27 79/111/27
f 97/113/27 88/112/27 79/111/27
f 80/200/2 7/5/2 92/115/2
f 7/5/2 17/179/2 93/204/2
f 96/205/2 7/5/2 93/204/2
f 96/205/2 95/206/2 7/5/2
f 95/206/2 94/114/2 7/5/2
f 101/116/28 96/118/28 93/108/28
f 100/117/29 95/120/29 96/118/29
f 99/119/30 94/121/30 95/120/30
f 97/113/31 92/96/31 94/121/31
f 89/122/28 101/116/28 98/109/28
f 90/124/29 100/117/29 101/116/29
f 91/125/30 99/119/30 100/117/30
f 88/112/31 97/113/31 99/119/31
f 4/39/4 87/123/4 98/109/4
f 4/183/9 34/42/9 87/127/9
f 34/42/9 91/138/9 90/207/9
f 89/126/9 34/42/9 90/207/9
f 83/171/9 105/131/9 110/130/9
f 105/131/9 104/128/9 110/130/9
f 105/131/9 83/171/9 109/132/9
f 118/141/9 108/140/9 119/208/9
f 108/140/9 107/209/9 119/208/9
f 42/51/9 45/89/9 111/169/9
f 111/169/9 112/167/9 116/210/9
f 111/169/9 116/210/9 115/211/9
f 120/212/9 119/208/9 107/209/9
f 42/51/9 111/169/9 115/211/9
f 42/51/9 115/211/9 114/213/9
f 121/214/9 120/212/9 107/209/9
f 106/135/9 121/214/9 107/209/9
f 42/51/9 114/213/9 113/215/9
f 42/51/9 113/215/9 103/134/9
f 106/135/9 107/209/9 42/51/9
f 107/136/31 108/110/31 88/112/31
f 104/137/27 105/139/27 82/100/27
f 42/55/4 107/216/4 91/138/4
f 105/139/27 102/217/27 77/103/27
f 112/167/9 78/129/9 116/210/9
f 78/129/9 104/128/9 116/210/9
f 116/210/9 104/128/9 117/142/9
f 104/128/9 108/140/9 117/142/9
f 130/143/64 129/218/64 118/144/64
f 114/146/65 125/159/65 124/147/65
f 131/149/66 130/143/66 119/145/66
f 116/151/67 127/219/67 126/152/67
f 128/154/53 127/220/53 116/155/53
f 113/148/68 124/147/68 122/157/68
f 115/153/69 126/152/69 125/159/69
f 121/160/70 132/166/70 131/149/70
f 118/144/71 129/218/71 128/161/71
f 103/158/72 122/157/72 123/163/72
f 106/165/73 123/221/73 132/166/73
f 112/167/74 138/172/74 133/168/74
f 73/88/75 137/222/75 111/169/75
f 109/102/3 135/223/3 71/90/3
f 136/170/47 134/173/47 83/171/47
f 111/169/76 137/222/76 138/172/76
f 134/173/47 135/224/47 109/132/47
f 78/129/77 133/168/77 136/170/77
