# Blender v3.0.1 OBJ File: ''
# www.blender.org
mtllib churchInterior.mtl
o interior_Plane
v 30.000000 16.276615 -30.000000
v 30.000000 16.276613 -20.876707
v 30.000000 27.113243 -20.876705
v 30.000000 27.113243 -29.999998
v 0.000000 2.941864 -30.000000
v 30.000000 2.941864 -30.000000
v 0.000000 16.276615 -30.000000
v 30.000000 2.941863 -20.876707
v 30.000000 2.941861 30.000000
v 30.000000 16.276611 30.000000
v 30.000000 -0.000001 30.000000
v 0.000000 -0.000001 30.000000
v 0.000000 -0.000001 32.573597
v 8.206678 -0.000001 32.573597
v 30.000000 -0.000001 32.573597
v 30.000000 0.000001 -20.876707
v 0.000000 2.941863 -20.876707
v 0.000000 0.000001 -20.876707
v 4.165922 52.947319 -20.876705
v 0.000000 52.947319 -20.876705
v 0.000000 52.947319 -29.999998
v 4.165922 52.947319 -29.999998
v 30.000000 27.113239 30.000002
v 30.000000 16.276611 32.573597
v 30.000000 27.113239 32.573597
v 28.033499 36.999516 -29.999998
v 22.433376 45.380695 -29.999998
v 14.052197 50.980820 -29.999998
v 14.052197 50.980816 -20.876705
v 22.433376 45.380692 -20.876705
v 28.033499 36.999516 -20.876705
v 4.165920 52.947319 30.000002
v 14.052195 50.980820 30.000002
v 22.433372 45.380695 30.000002
v 28.033497 36.999516 30.000002
v 0.000000 52.947319 30.000002
v 0.000000 36.999516 30.000002
v 30.000000 2.941861 32.573597
v 8.206678 2.941861 32.573597
v 8.175110 14.742688 32.573597
v 7.701512 16.276611 32.573597
v 16.721420 33.537769 32.573597
v 15.389139 32.446560 32.573597
v 0.000000 36.999516 32.573597
v 28.033497 36.999516 32.573597
v 23.206833 17.926834 32.573597
v 18.789633 34.819294 32.573597
v 20.898252 33.546116 32.573597
v 20.898252 33.546116 34.363903
v 18.789633 34.819294 34.363903
v 22.953775 31.211447 32.573597
v 23.207548 29.282810 32.573597
v 23.207548 29.282810 34.363903
v 22.953775 31.211447 34.363903
v 14.602456 31.114277 32.573597
v 15.389139 32.446560 34.363903
v 14.602456 31.114277 34.363903
v 22.217848 32.416843 32.573597
v 22.217848 32.416843 34.363903
v 14.377813 17.905685 32.573597
v 14.399444 29.337900 32.573597
v 14.399444 29.337900 34.363903
v 14.377813 17.905685 34.363903
v 23.206833 17.926834 34.363903
v 16.721420 33.537769 34.363903
v 3.786483 20.552097 32.573597
v 7.638371 16.637056 32.573597
v 7.638371 16.637056 34.177406
v 3.786483 20.552097 34.177406
v 8.206678 -0.000001 34.177406
v 8.206678 2.941861 34.177406
v 8.175110 14.742687 34.177406
v 7.701512 16.276611 34.177406
v 0.000000 21.953852 32.573597
v 0.009177 21.953852 34.177406
v 0.000000 -0.000001 34.177406
v -30.000000 16.276615 -30.000000
v -30.000000 27.113243 -29.999998
v -30.000000 27.113243 -20.876705
v -30.000000 16.276613 -20.876707
v -30.000000 2.941864 -30.000000
v -30.000000 2.941863 -20.876707
v -30.000000 16.276611 30.000000
v -30.000000 2.941861 30.000000
v -30.000000 -0.000001 30.000000
v -30.000000 -0.000001 32.573597
v -8.206678 -0.000001 32.573597
v -30.000000 0.000001 -20.876707
v -4.165922 52.947319 -20.876705
v -4.165922 52.947319 -29.999998
v -30.000000 27.113239 30.000002
v -30.000000 27.113239 32.573597
v -30.000000 16.276611 32.573597
v -14.052197 50.980820 -29.999998
v -22.433376 45.380695 -29.999998
v -28.033499 36.999516 -29.999998
v -14.052197 50.980816 -20.876705
v -22.433376 45.380692 -20.876705
v -28.033499 36.999516 -20.876705
v -4.165920 52.947319 30.000002
v -14.052195 50.980820 30.000002
v -22.433372 45.380695 30.000002
v -28.033497 36.999516 30.000002
v -30.000000 2.941861 32.573597
v -7.701512 16.276611 32.573597
v -8.175110 14.742688 32.573597
v -8.206678 2.941861 32.573597
v -16.721420 33.537769 32.573597
v -15.389139 32.446560 32.573597
v -28.033497 36.999516 32.573597
v -23.206833 17.926834 32.573597
v -18.789633 34.819294 32.573597
v -18.789633 34.819294 34.363903
v -20.898252 33.546116 34.363903
v -20.898252 33.546116 32.573597
v -22.953775 31.211447 32.573597
v -22.953775 31.211447 34.363903
v -23.207548 29.282810 34.363903
v -23.207548 29.282810 32.573597
v -14.602456 31.114277 32.573597
v -14.602456 31.114277 34.363903
v -15.389139 32.446560 34.363903
v -22.217848 32.416843 32.573597
v -22.217848 32.416843 34.363903
v -14.377813 17.905685 32.573597
v -14.377813 17.905685 34.363903
v -14.399444 29.337900 34.363903
v -14.399444 29.337900 32.573597
v -23.206833 17.926834 34.363903
v -16.721420 33.537769 34.363903
v -3.786483 20.552097 32.573597
v -3.786483 20.552097 34.177406
v -7.638371 16.637056 34.177406
v -7.638371 16.637056 32.573597
v -8.206678 2.941861 34.177406
v -8.206678 -0.000001 34.177406
v -7.701512 16.276611 34.177406
v -8.175110 14.742687 34.177406
v -0.009177 21.953852 34.177406
vt 1.000000 1.000000
vt 1.000000 0.847945
vt 1.000000 0.847945
vt 1.000000 1.000000
vt 0.000000 1.000000
vt 1.000000 1.000000
vt 0.000000 1.000000
vt 1.000000 0.847945
vt 1.000000 0.000000
vt 1.000000 0.000000
vt 1.000000 0.000000
vt 0.000000 0.000000
vt 0.000000 0.000000
vt 0.273556 0.000000
vt 1.000000 0.000000
vt 1.000000 0.847945
vt 1.000000 0.847945
vt 0.000000 0.847945
vt 0.138864 0.117749
vt 0.000000 0.000000
vt 0.000000 1.000000
vt 0.138864 1.000000
vt 1.000000 0.000000
vt 1.000000 0.000000
vt 1.000000 0.000000
vt 0.978150 1.000000
vt 0.915926 1.000000
vt 0.468407 1.000000
vt 0.468407 0.397183
vt 1.000000 0.847945
vt 1.000000 0.847945
vt 0.138864 0.000000
vt 0.468407 0.000000
vt 0.915926 0.000000
vt 0.978150 0.000000
vt 0.000000 0.000000
vt 0.000000 0.000000
vt 1.000000 0.000000
vt 0.273556 0.000000
vt 0.272504 0.000000
vt 0.256717 0.000000
vt 0.577381 0.000000
vt 0.529708 0.000000
vt 0.000000 0.000000
vt 0.978150 0.000000
vt 0.774805 0.000000
vt 0.651260 0.000000
vt 0.721548 0.000000
vt 0.721548 0.000000
vt 0.651260 0.000000
vt 0.785892 0.000000
vt 0.789560 0.000000
vt 0.789560 0.000000
vt 0.785892 0.000000
vt 0.500814 0.000000
vt 0.529708 0.000000
vt 0.500814 0.000000
vt 0.764059 0.000000
vt 0.764059 0.000000
vt 0.480475 0.000000
vt 0.491651 0.000000
vt 0.491651 0.000000
vt 0.480475 0.000000
vt 0.774805 0.000000
vt 0.577381 0.000000
vt 0.127404 0.000000
vt 0.254816 0.000000
vt 0.254816 0.000000
vt 0.127404 0.000000
vt 0.273556 0.000000
vt 0.273556 0.000000
vt 0.272504 0.000000
vt 0.256717 0.000000
vt 0.000000 0.000000
vt 0.000000 0.000000
vt 0.000000 0.000000
vt 1.000000 1.000000
vt 1.000000 1.000000
vt 1.000000 0.847945
vt 1.000000 0.847945
vt 1.000000 1.000000
vt 1.000000 0.847945
vt 1.000000 0.000000
vt 1.000000 0.000000
vt 1.000000 0.000000
vt 1.000000 0.000000
vt 0.273556 0.000000
vt 1.000000 0.847945
vt 0.138864 0.117749
vt 0.138864 1.000000
vt 1.000000 0.000000
vt 1.000000 0.000000
vt 1.000000 0.000000
vt 0.468407 1.000000
vt 0.915926 1.000000
vt 0.978150 1.000000
vt 0.468407 0.397183
vt 1.000000 0.847945
vt 1.000000 0.847945
vt 0.138864 0.000000
vt 0.468407 0.000000
vt 0.915926 0.000000
vt 0.978150 0.000000
vt 1.000000 0.000000
vt 0.256717 0.000000
vt 0.272504 0.000000
vt 0.273556 0.000000
vt 0.577381 0.000000
vt 0.529708 0.000000
vt 0.978150 0.000000
vt 0.774805 0.000000
vt 0.651260 0.000000
vt 0.651260 0.000000
vt 0.721548 0.000000
vt 0.721548 0.000000
vt 0.785892 0.000000
vt 0.785892 0.000000
vt 0.789560 0.000000
vt 0.789560 0.000000
vt 0.500814 0.000000
vt 0.500814 0.000000
vt 0.529708 0.000000
vt 0.764059 0.000000
vt 0.764059 0.000000
vt 0.480475 0.000000
vt 0.480475 0.000000
vt 0.491651 0.000000
vt 0.491651 0.000000
vt 0.774805 0.000000
vt 0.577381 0.000000
vt 0.127404 0.000000
vt 0.127404 0.000000
vt 0.254816 0.000000
vt 0.254816 0.000000
vt 0.273556 0.000000
vt 0.273556 0.000000
vt 0.256717 0.000000
vt 0.272504 0.000000
vt 0.000000 0.000000
vn -1.0000 0.0000 0.0000
vn 0.0000 0.0000 1.0000
vn 0.0000 1.0000 0.0000
vn 0.0000 -1.0000 -0.0000
vn -0.1951 -0.9808 -0.0000
vn -0.5556 -0.8315 -0.0000
vn -0.8315 -0.5556 -0.0000
vn -0.9808 -0.1951 -0.0000
vn 0.0000 0.0000 -1.0000
vn -0.5169 -0.8561 0.0000
vn -0.9915 -0.1305 0.0000
vn 0.8611 -0.5085 0.0000
vn -0.8535 -0.5211 0.0000
vn 1.0000 -0.0019 0.0000
vn -0.0024 1.0000 0.0000
vn 0.6336 -0.7736 0.0000
vn 0.9935 -0.1135 0.0000
vn -0.6502 -0.7598 0.0000
vn -1.0000 0.0001 0.0000
vn 0.5267 -0.8500 0.0000
vn -0.7128 -0.7013 0.0000
vn -1.0000 -0.0013 -0.0000
vn -0.9555 -0.2950 0.0000
vn -0.9850 -0.1725 0.0000
vn -0.3475 -0.9377 0.0010
vn -1.0000 -0.0027 -0.0000
vn 1.0000 0.0000 0.0000
vn 0.1951 -0.9808 -0.0000
vn 0.5556 -0.8315 0.0000
vn 0.8315 -0.5556 -0.0000
vn 0.9808 -0.1951 -0.0000
vn 0.5169 -0.8561 0.0000
vn 0.9915 -0.1305 0.0000
vn -0.8611 -0.5085 0.0000
vn 0.8535 -0.5211 0.0000
vn -1.0000 -0.0019 0.0000
vn 0.0024 1.0000 0.0000
vn -0.6336 -0.7736 0.0000
vn -0.9935 -0.1135 0.0000
vn 0.6502 -0.7598 0.0000
vn 1.0000 0.0001 0.0000
vn -0.5267 -0.8500 0.0000
vn 0.7128 -0.7013 0.0000
vn 1.0000 -0.0013 -0.0000
vn 0.9555 -0.2950 0.0000
vn 0.9850 -0.1725 0.0000
vn 0.3475 -0.9377 0.0010
vn 1.0000 -0.0027 -0.0000
usemtl None
s 1
f 1/1/1 2/2/1 3/3/1 4/4/1
f 5/5/2 6/6/2 1/1/2 7/7/2
f 8/8/1 9/9/1 10/10/1 2/2/1
f 11/11/3 12/12/3 13/13/3 14/14/3 15/15/3
f 16/16/1 11/11/1 9/9/1 8/8/1
f 17/17/2 18/18/2 16/16/2 8/8/2
f 17/17/3 8/8/3 6/6/3 5/5/3
f 6/6/1 8/8/1 2/2/1 1/1/1
f 12/12/3 11/11/3 16/16/3 18/18/3
f 19/19/4 20/20/4 21/21/4 22/22/4
f 23/23/1 10/10/1 24/24/1 25/25/1
f 2/2/1 10/10/1 23/23/1 3/3/1
f 7/7/2 1/1/2 4/4/2 26/26/2 27/27/2 28/28/2 22/22/2 21/21/2
f 19/19/5 22/22/5 28/28/5 29/29/5
f 29/29/6 28/28/6 27/27/6 30/30/6
f 30/30/7 27/27/7 26/26/7 31/31/7
f 31/31/8 26/26/8 4/4/8 3/3/8
f 32/32/5 19/19/5 29/29/5 33/33/5
f 33/33/6 29/29/6 30/30/6 34/34/6
f 34/34/7 30/30/7 31/31/7 35/35/7
f 35/35/8 31/31/8 3/3/8 23/23/8
f 20/20/4 19/19/4 32/32/4 36/36/4
f 37/37/9 36/36/9 32/32/9 33/33/9 34/34/9 35/35/9
f 38/38/9 39/39/9 40/40/9 41/41/9 24/24/9
f 15/15/9 14/14/9 39/39/9 38/38/9
f 42/42/9 43/43/9 44/44/9
f 35/35/8 23/23/8 25/25/8 45/45/8
f 10/10/1 9/9/1 38/38/1 24/24/1
f 37/37/4 35/35/4 45/45/4 44/44/4
f 9/9/1 11/11/1 15/15/1 38/38/1
f 46/46/9 25/25/9 24/24/9
f 47/47/10 48/48/10 49/49/10 50/50/10
f 51/51/11 52/52/11 53/53/11 54/54/11
f 55/55/12 43/43/12 56/56/12 57/57/12
f 58/58/13 51/51/13 54/54/13 59/59/13
f 60/60/14 61/61/14 62/62/14 63/63/14
f 46/46/15 60/60/15 63/63/15 64/64/15
f 43/43/16 42/42/16 65/65/16 56/56/16
f 61/61/17 55/55/17 57/57/17 62/62/17
f 48/48/18 58/58/18 59/59/18 49/49/18
f 52/52/19 46/46/19 64/64/19 53/53/19
f 42/42/20 47/47/20 50/50/20 65/65/20
f 66/66/21 67/67/21 68/68/21 69/69/21
f 39/39/22 14/14/1 70/70/1 71/71/22
f 41/41/23 40/40/23 72/72/23 73/73/23
f 67/67/24 41/41/24 73/73/24 68/68/24
f 74/74/25 66/66/25 69/69/25 75/75/25
f 14/14/3 13/13/3 76/76/3 70/70/3
f 40/40/26 39/39/22 71/71/22 72/72/26
f 45/45/9 25/25/9 51/51/9
f 25/25/9 52/52/9 51/51/9
f 66/66/9 74/74/9 44/44/9
f 60/60/9 67/67/9 66/66/9
f 61/61/9 60/60/9 66/66/9
f 45/45/9 51/51/9 58/58/9
f 45/45/9 58/58/9 48/48/9
f 61/61/9 66/66/9 44/44/9
f 55/55/9 61/61/9 44/44/9
f 45/45/9 48/48/9 47/47/9
f 44/44/9 45/45/9 47/47/9
f 43/43/9 55/55/9 44/44/9
f 44/44/9 47/47/9 42/42/9
f 24/24/9 41/41/9 60/60/9
f 41/41/9 67/67/9 60/60/9
f 24/24/9 60/60/9 46/46/9
f 46/46/9 52/52/9 25/25/9
f 77/77/27 78/78/27 79/79/27 80/80/27
f 5/5/2 7/7/2 77/77/2 81/81/2
f 82/82/27 80/80/27 83/83/27 84/84/27
f 85/85/3 86/86/3 87/87/3 13/13/3 12/12/3
f 88/88/27 82/82/27 84/84/27 85/85/27
f 17/17/2 82/82/2 88/88/2 18/18/2
f 17/17/3 5/5/3 81/81/3 82/82/3
f 81/81/27 77/77/27 80/80/27 82/82/27
f 12/12/3 18/18/3 88/88/3 85/85/3
f 89/89/4 90/90/4 21/21/4 20/20/4
f 91/91/27 92/92/27 93/93/27 83/83/27
f 80/80/27 79/79/27 91/91/27 83/83/27
f 7/7/2 21/21/2 90/90/2 94/94/2 95/95/2 96/96/2 78/78/2 77/77/2
f 89/89/28 97/97/28 94/94/28 90/90/28
f 97/97/29 98/98/29 95/95/29 94/94/29
f 98/98/30 99/99/30 96/96/30 95/95/30
f 99/99/31 79/79/31 78/78/31 96/96/31
f 100/100/28 101/101/28 97/97/28 89/89/28
f 101/101/29 102/102/29 98/98/29 97/97/29
f 102/102/30 103/103/30 99/99/30 98/98/30
f 103/103/31 91/91/31 79/79/31 99/99/31
f 20/20/4 36/36/4 100/100/4 89/89/4
f 37/37/9 103/103/9 102/102/9 101/101/9 100/100/9 36/36/9
f 104/104/9 93/93/9 105/105/9 106/106/9 107/107/9
f 86/86/9 104/104/9 107/107/9 87/87/9
f 108/108/9 44/44/9 109/109/9
f 103/103/31 110/110/31 92/92/31 91/91/31
f 83/83/27 93/93/27 104/104/27 84/84/27
f 37/37/4 44/44/4 110/110/4 103/103/4
f 84/84/27 104/104/27 86/86/27 85/85/27
f 111/111/9 93/93/9 92/92/9
f 112/112/32 113/113/32 114/114/32 115/115/32
f 116/116/33 117/117/33 118/118/33 119/119/33
f 120/120/34 121/121/34 122/122/34 109/109/34
f 123/123/35 124/124/35 117/117/35 116/116/35
f 125/125/36 126/126/36 127/127/36 128/128/36
f 111/111/37 129/129/37 126/126/37 125/125/37
f 109/109/38 122/122/38 130/130/38 108/108/38
f 128/128/39 127/127/39 121/121/39 120/120/39
f 115/115/40 114/114/40 124/124/40 123/123/40
f 119/119/41 118/118/41 129/129/41 111/111/41
f 108/108/42 130/130/42 113/113/42 112/112/42
f 131/131/43 132/132/43 133/133/43 134/134/43
f 107/107/44 135/135/44 136/136/27 87/87/27
f 105/105/45 137/137/45 138/138/45 106/106/45
f 134/134/46 133/133/46 137/137/46 105/105/46
f 74/74/47 139/139/47 132/132/47 131/131/47
f 87/87/3 136/136/3 76/76/3 13/13/3
f 106/106/48 138/138/48 135/135/44 107/107/44
f 110/110/9 116/116/9 92/92/9
f 92/92/9 116/116/9 119/119/9
f 131/131/9 44/44/9 74/74/9
f 125/125/9 131/131/9 134/134/9
f 128/128/9 131/131/9 125/125/9
f 110/110/9 123/123/9 116/116/9
f 110/110/9 115/115/9 123/123/9
f 128/128/9 44/44/9 131/131/9
f 120/120/9 44/44/9 128/128/9
f 110/110/9 112/112/9 115/115/9
f 44/44/9 112/112/9 110/110/9
f 109/109/9 44/44/9 120/120/9
f 44/44/9 108/108/9 112/112/9
f 93/93/9 125/125/9 105/105/9
f 105/105/9 125/125/9 134/134/9
f 93/93/9 111/111/9 125/125/9
f 111/111/9 92/92/9 119/119/9
