# Blender v3.0.1 OBJ File: 'churchFull.blend'
# www.blender.org
mtllib churchInterior.mtl
o interior_Plane
v 0.000000 0.000000 30.000000
v 30.000000 0.000000 30.000000
v 0.000000 2.941862 -20.876707
v 0.000000 52.947319 30.000000
v 7.701512 16.276613 32.573597
v 30.000000 16.276613 30.000000
v 0.000000 16.276613 -30.000000
v 30.000000 16.276613 -30.000000
v 0.000000 2.941862 -30.000000
v 30.000000 2.941862 -30.000000
v 30.000000 2.941862 30.000000
v 8.206678 2.941862 32.573597
v 0.000000 0.000000 -20.876707
v 30.000000 0.000000 -20.876707
v 30.000000 16.276613 -20.876707
v 30.000000 2.941862 -20.876707
v 0.000000 52.947319 -30.000000
v 0.000000 52.947319 -20.876707
v 4.165920 52.947319 30.000000
v 30.000000 27.113241 30.000000
v 14.052195 50.980820 30.000000
v 22.433372 45.380695 30.000000
v 28.033497 36.999516 30.000000
v 30.000000 27.113241 -30.000000
v 4.165922 52.947319 -30.000000
v 28.033499 36.999516 -30.000000
v 22.433376 45.380695 -30.000000
v 14.052197 50.980820 -30.000000
v 30.000000 27.113243 -20.876707
v 4.165922 52.947319 -20.876707
v 28.033499 36.999516 -20.876707
v 22.433376 45.380692 -20.876707
v 14.052197 50.980816 -20.876707
v 0.000000 36.999516 30.000000
v 0.000000 0.000000 32.573597
v 30.000000 0.000000 32.573597
v 16.721420 33.537769 32.573597
v 30.000000 16.276613 32.573597
v 30.000000 2.941862 32.573597
v 18.789633 34.819294 32.573597
v 28.033497 36.999516 32.573597
v 0.000000 36.999516 32.573597
v 30.000000 27.113241 32.573597
v 8.206678 0.000000 32.573597
v 0.000000 21.953854 32.573597
v 8.175110 14.742689 32.573597
v 3.786483 20.552099 32.573597
v 7.638371 16.637058 32.573597
v 15.389139 32.446560 32.573597
v 14.602456 31.114279 32.573597
v 14.399444 29.337902 32.573597
v 14.377813 17.905687 32.573597
v 23.206833 17.926836 32.573597
v 23.207548 29.282812 32.573597
v 22.953775 31.211449 32.573597
v 22.217848 32.416843 32.573597
v 20.898252 33.546116 32.573597
v 16.674196 33.532036 34.415150
v 18.790768 34.819221 34.414562
v 15.338523 32.392494 34.348198
v 14.630975 31.167088 34.348633
v 14.382960 29.309460 34.414562
v 14.382865 17.928946 34.414555
v 23.198477 17.928946 34.414555
v 23.198477 29.318527 34.414555
v 22.950462 31.176157 34.348625
v 22.242916 32.401566 34.348194
v 20.865149 33.603348 34.335392
v 7.732071 16.261951 34.208164
v 8.220918 2.868891 34.200619
v 0.000000 0.000000 34.103035
v 8.220918 -0.000000 34.200619
v 0.000000 21.990955 34.210136
v 8.220918 14.786827 34.200619
v 3.864045 20.653408 34.200619
v 7.604349 16.647360 34.210136
v 0.000000 0.000000 4.561647
v 30.000000 0.000000 1.000000
v 30.000000 16.276613 1.000000
v 30.000000 2.941862 1.000000
v 0.000000 52.947319 4.561646
v 4.165921 52.947319 4.561646
v 14.052197 50.980820 4.561647
v 22.433374 45.380692 4.561647
v 28.033497 36.999516 4.561647
v 30.000000 27.113243 4.561647
v 30.000000 0.000000 -8.157531
v 30.000000 16.276613 -8.157531
v 30.000000 2.941862 -8.157531
v 0.000000 52.947319 -8.157531
v 4.165922 52.947319 -8.157531
v 0.000000 0.000000 -8.157530
v 14.052197 50.980820 -8.157530
v 22.433376 45.380692 -8.157530
v 28.033497 36.999516 -8.157530
v 30.000000 27.113243 -8.157530
v 42.000000 0.000000 1.000000
v 42.000000 2.941862 1.000000
v 42.000000 16.276613 1.000000
v 42.000000 0.000000 -8.157531
v 42.000000 16.276613 -8.157531
v 42.000000 2.941862 -8.157531
v -30.000000 0.000000 30.000000
v -7.701512 16.276613 32.573597
v -30.000000 16.276613 30.000000
v -30.000000 16.276613 -30.000000
v -30.000000 2.941862 -30.000000
v -30.000000 2.941862 30.000000
v -8.206678 2.941862 32.573597
v -30.000000 0.000000 -20.876707
v -30.000000 16.276613 -20.876707
v -30.000000 2.941862 -20.876707
v -4.165920 52.947319 30.000000
v -30.000000 27.113241 30.000000
v -14.052195 50.980820 30.000000
v -22.433372 45.380695 30.000000
v -28.033497 36.999516 30.000000
v -30.000000 27.113241 -30.000000
v -4.165922 52.947319 -30.000000
v -28.033499 36.999516 -30.000000
v -22.433376 45.380695 -30.000000
v -14.052197 50.980820 -30.000000
v -30.000000 27.113243 -20.876707
v -4.165922 52.947319 -20.876707
v -28.033499 36.999516 -20.876707
v -22.433376 45.380692 -20.876707
v -14.052197 50.980816 -20.876707
v -30.000000 0.000000 32.573597
v -16.721420 33.537769 32.573597
v -30.000000 16.276613 32.573597
v -30.000000 2.941862 32.573597
v -18.789633 34.819294 32.573597
v -28.033497 36.999516 32.573597
v -30.000000 27.113241 32.573597
v -8.206678 0.000000 32.573597
v -8.175110 14.742689 32.573597
v -3.786483 20.552099 32.573597
v -7.638371 16.637058 32.573597
v -15.389139 32.446560 32.573597
v -14.602456 31.114279 32.573597
v -14.399444 29.337902 32.573597
v -14.377813 17.905687 32.573597
v -23.206833 17.926836 32.573597
v -23.207548 29.282812 32.573597
v -22.953775 31.211449 32.573597
v -22.217848 32.416843 32.573597
v -20.898252 33.546116 32.573597
v -16.674196 33.532036 34.415150
v -18.790768 34.819221 34.414562
v -15.338523 32.392494 34.348198
v -14.630975 31.167088 34.348633
v -14.382960 29.309460 34.414562
v -14.382865 17.928946 34.414555
v -23.198477 17.928946 34.414555
v -23.198477 29.318527 34.414555
v -22.950462 31.176157 34.348625
v -22.242916 32.401566 34.348194
v -20.865149 33.603348 34.335392
v -7.732071 16.261951 34.208164
v -8.220918 2.868891 34.200619
v -8.220918 -0.000000 34.200619
v -8.220918 14.786827 34.200619
v -3.864045 20.653408 34.200619
v -7.604349 16.647360 34.210136
v -30.000000 0.000000 1.000000
v -30.000000 16.276613 1.000000
v -30.000000 2.941862 1.000000
v -4.165921 52.947319 4.561646
v -14.052197 50.980820 4.561647
v -22.433374 45.380692 4.561647
v -28.033497 36.999516 4.561647
v -30.000000 27.113243 4.561647
v -30.000000 0.000000 -8.157531
v -30.000000 16.276613 -8.157531
v -30.000000 2.941862 -8.157531
v -4.165922 52.947319 -8.157531
v -14.052197 50.980820 -8.157530
v -22.433376 45.380692 -8.157530
v -28.033497 36.999516 -8.157530
v -30.000000 27.113243 -8.157530
v -42.000000 0.000000 1.000000
v -42.000000 2.941862 1.000000
v -42.000000 16.276613 1.000000
v -42.000000 0.000000 -8.157531
v -42.000000 16.276613 -8.157531
v -42.000000 2.941862 -8.157531
vt 0.040285 0.104633
vt 0.121246 0.104633
vt 0.121246 0.200800
vt 0.040285 0.200800
vt 0.266464 0.999762
vt 0.000238 0.999762
vt 0.000238 0.881427
vt 0.266464 0.881427
vt 0.315385 -0.013702
vt 0.572736 -0.013702
vt 0.572736 0.104633
vt 0.315385 0.104633
vt 0.636097 0.558796
vt 0.902323 0.558796
vt 0.902323 0.581635
vt 0.829495 0.581635
vt 0.636097 0.581635
vt 0.315385 -0.039809
vt 0.572736 -0.039809
vt 0.902323 0.081200
vt 0.902323 0.107307
vt 0.636097 0.107307
vt 0.636097 0.081200
vt 0.636097 0.000238
vt 0.902323 0.000238
vt 0.040285 -0.013702
vt 0.121246 -0.013702
vt 0.902323 0.220179
vt 0.636097 0.220179
vt 0.121246 0.558606
vt 0.121246 0.595575
vt 0.040284 0.595575
vt 0.040284 0.558606
vt 0.572736 0.200799
vt 0.595575 0.104633
vt 0.595575 0.200799
vt 0.346991 0.200799
vt 0.000238 0.785261
vt 0.017689 0.697528
vt 0.067385 0.623152
vt 0.141762 0.573455
vt 0.229494 0.556004
vt 0.266464 0.556004
vt 0.040284 0.469154
vt 0.121246 0.469154
vt 0.040284 0.379703
vt 0.121246 0.379703
vt 0.040284 0.290251
vt 0.121246 0.290251
vt 0.234119 0.558606
vt 0.234119 0.469154
vt 0.234119 0.379703
vt 0.234119 0.290251
vt 0.234119 0.200800
vt 0.346991 0.595575
vt 0.346991 0.558606
vt 0.572736 0.558606
vt 0.572736 0.595575
vt 0.884872 0.619388
vt 0.884872 0.760912
vt 0.847903 0.760912
vt 0.760170 0.743461
vt 0.685794 0.693764
vt 0.636097 0.619388
vt 0.538925 0.859829
vt 0.345505 0.859994
vt 0.344834 0.755257
vt 0.340625 0.741443
vt 0.538830 0.741454
vt 0.538940 0.885939
vt 0.345523 0.886049
vt 0.421132 0.587726
vt 0.409243 0.597400
vt 0.272715 0.556004
vt 0.572736 0.290251
vt 0.595575 0.290251
vt 0.595575 -0.013702
vt 0.636097 0.596549
vt 0.884872 0.596549
vt 0.595575 -0.039809
vt 0.478404 0.726783
vt 0.538940 0.645214
vt 0.902799 0.118276
vt 0.902799 0.101013
vt 0.919136 0.101337
vt 0.918551 0.117969
vt 0.919168 0.285883
vt 0.919150 0.299613
vt 0.903402 0.298950
vt 0.903415 0.286393
vt 0.902840 0.130809
vt 0.918588 0.130526
vt 0.919155 0.168564
vt 0.919151 0.270016
vt 0.902814 0.269763
vt 0.902818 0.168770
vt 0.636099 0.839738
vt 0.636097 0.761388
vt 0.652436 0.761432
vt 0.652436 0.839664
vt 0.919143 0.314895
vt 0.902799 0.314531
vt 0.902865 0.146221
vt 0.918502 0.146750
vt 0.902845 0.000238
vt 0.919182 0.000264
vt 0.919168 0.336487
vt 0.902831 0.336514
vt 0.902845 0.168080
vt 0.919182 0.168088
vt 0.339271 0.737724
vt 0.329171 0.746396
vt 0.328481 0.745317
vt 0.272234 0.689145
vt 0.305145 0.702813
vt 0.297349 0.714267
vt 0.266940 0.701272
vt 0.902323 0.595208
vt 0.829369 0.596074
vt 0.331215 0.860635
vt 0.331359 0.756656
vt 0.331135 0.886004
vt 0.234119 0.595575
vt 0.346991 0.290251
vt 0.572736 0.379703
vt 0.346991 0.379703
vt 0.572736 0.469154
vt 0.346991 0.469154
vt 0.234119 0.104633
vt 0.636097 0.301445
vt 0.902323 0.333052
vt 0.991838 0.822257
vt 0.991838 0.940592
vt 0.885348 0.940592
vt 0.885348 0.822257
vt 0.991838 0.740991
vt 0.885348 0.740991
vt 0.234119 -0.013702
vt 0.121246 -0.039809
vt 0.234119 -0.039809
vt 0.620681 0.700446
vt 0.539416 0.700446
vt 0.539416 0.674339
vt 0.620681 0.674339
vt 0.539416 0.556004
vt 0.620681 0.556004
vt 0.991838 0.622656
vt 0.885348 0.622656
vt 0.991838 0.966699
vt 0.885348 0.966699
vt 0.539416 0.700921
vt 0.620681 0.700921
vt 0.620681 0.807412
vt 0.539416 0.807412
vt 0.991838 0.596549
vt 0.885348 0.596549
vt 0.521785 0.557420
vt 0.476472 0.608634
vt 0.478650 0.625788
vt 0.399734 0.726893
vt 0.400309 0.625073
vt 0.469966 0.597892
vt 0.458272 0.587802
vt 0.402191 0.609244
vt 0.439572 0.576394
vt 0.040285 0.104633
vt 0.040285 0.200800
vt 0.121246 0.200800
vt 0.121246 0.104633
vt 0.000238 0.881427
vt 0.000238 0.999762
vt 0.315385 -0.013702
vt 0.315385 0.104633
vt 0.572736 0.104633
vt 0.572736 -0.013702
vt 0.636097 0.558796
vt 0.636097 0.581635
vt 0.829495 0.581635
vt 0.315385 -0.039809
vt 0.572736 -0.039809
vt 0.636097 0.081200
vt 0.636097 0.107307
vt 0.636097 0.000238
vt 0.040285 -0.013702
vt 0.121246 -0.013702
vt 0.636097 0.220179
vt 0.121246 0.558606
vt 0.040284 0.558606
vt 0.572736 0.200799
vt 0.595575 0.200799
vt 0.595575 0.104633
vt 0.346991 0.200799
vt 0.229494 0.556004
vt 0.141762 0.573455
vt 0.067385 0.623152
vt 0.017689 0.697528
vt 0.000238 0.785261
vt 0.121246 0.469154
vt 0.040284 0.469154
vt 0.121246 0.379703
vt 0.040284 0.379703
vt 0.121246 0.290251
vt 0.040284 0.290251
vt 0.234119 0.558606
vt 0.234119 0.469154
vt 0.234119 0.379703
vt 0.234119 0.290251
vt 0.234119 0.200800
vt 0.572736 0.558606
vt 0.346991 0.558606
vt 0.636097 0.619388
vt 0.685794 0.693764
vt 0.760170 0.743461
vt 0.847903 0.760912
vt 0.538925 0.859829
vt 0.538830 0.741454
vt 0.340625 0.741443
vt 0.344834 0.755257
vt 0.345505 0.859994
vt 0.538940 0.885939
vt 0.345523 0.886049
vt 0.421132 0.587726
vt 0.409243 0.597400
vt 0.572736 0.290251
vt 0.595575 0.290251
vt 0.595575 -0.013702
vt 0.636097 0.596549
vt 0.595575 -0.039809
vt 0.478404 0.726783
vt 0.538940 0.645214
vt 0.902799 0.118276
vt 0.918551 0.117969
vt 0.919136 0.101337
vt 0.902799 0.101013
vt 0.919168 0.285883
vt 0.903415 0.286393
vt 0.903402 0.298950
vt 0.919150 0.299613
vt 0.902840 0.130809
vt 0.918588 0.130526
vt 0.919155 0.168564
vt 0.902818 0.168770
vt 0.902814 0.269763
vt 0.919151 0.270016
vt 0.636099 0.839738
vt 0.652436 0.839664
vt 0.652436 0.761432
vt 0.636097 0.761388
vt 0.902799 0.314531
vt 0.919143 0.314895
vt 0.902865 0.146221
vt 0.918502 0.146750
vt 0.919182 0.000264
vt 0.902845 0.000238
vt 0.902831 0.336514
vt 0.919168 0.336487
vt 0.902845 0.168080
vt 0.919182 0.168088
vt 0.339271 0.737724
vt 0.328481 0.745317
vt 0.329171 0.746396
vt 0.297349 0.714267
vt 0.305145 0.702813
vt 0.829369 0.596074
vt 0.331359 0.756656
vt 0.331215 0.860635
vt 0.331135 0.886004
vt 0.346991 0.290251
vt 0.572736 0.379703
vt 0.346991 0.379703
vt 0.572736 0.469154
vt 0.346991 0.469154
vt 0.234119 0.104633
vt 0.636097 0.301445
vt 0.991838 0.822257
vt 0.885348 0.822257
vt 0.885348 0.940592
vt 0.991838 0.940592
vt 0.991838 0.740991
vt 0.885348 0.740991
vt 0.234119 -0.013702
vt 0.121246 -0.039809
vt 0.234119 -0.039809
vt 0.620681 0.700446
vt 0.620681 0.674339
vt 0.539416 0.674339
vt 0.539416 0.700446
vt 0.620681 0.556004
vt 0.539416 0.556004
vt 0.991838 0.622656
vt 0.885348 0.622656
vt 0.885348 0.966699
vt 0.991838 0.966699
vt 0.539416 0.700921
vt 0.539416 0.807412
vt 0.620681 0.807412
vt 0.620681 0.700921
vt 0.991838 0.596549
vt 0.885348 0.596549
vt 0.521785 0.557420
vt 0.476472 0.608634
vt 0.478650 0.625788
vt 0.399734 0.726893
vt 0.400309 0.625073
vt 0.469966 0.597892
vt 0.458272 0.587802
vt 0.402191 0.609244
vt 0.439572 0.576394
vn -1.0000 0.0000 0.0000
vn 0.0000 0.0000 1.0000
vn 0.0000 1.0000 -0.0000
vn 0.0000 -1.0000 0.0000
vn -0.1951 -0.9808 0.0000
vn -0.5556 -0.8315 0.0000
vn -0.8315 -0.5556 -0.0000
vn -0.9808 -0.1951 0.0000
vn -0.0000 0.0000 -1.0000
vn -0.9913 -0.1314 -0.0034
vn 0.8634 -0.5044 0.0052
vn -0.8598 -0.5106 -0.0020
vn 1.0000 -0.0010 0.0031
vn -0.0012 1.0000 -0.0069
vn 0.6414 -0.7672 0.0047
vn 0.9924 -0.1232 -0.0025
vn -0.6539 -0.7566 0.0075
vn -1.0000 0.0000 -0.0047
vn 0.5231 -0.8522 0.0052
vn -0.5112 -0.8594 0.0091
vn -0.9688 -0.2479 -0.0014
vn -0.3367 -0.9404 0.0479
vn -0.9998 -0.0013 0.0184
vn -0.7216 -0.6916 0.0333
vn -1.0000 0.0000 0.0088
vn -0.9521 -0.3046 0.0250
vn 1.0000 0.0000 0.0000
vn 0.1951 -0.9808 0.0000
vn 0.5556 -0.8315 0.0000
vn 0.8315 -0.5556 -0.0000
vn 0.9808 -0.1951 0.0000
vn 0.9913 -0.1314 -0.0034
vn -0.8634 -0.5044 0.0052
vn 0.8598 -0.5106 -0.0020
vn -1.0000 -0.0010 0.0031
vn 0.0012 1.0000 -0.0069
vn -0.6414 -0.7672 0.0047
vn -0.9924 -0.1232 -0.0025
vn 0.6539 -0.7566 0.0075
vn 1.0000 0.0000 -0.0047
vn -0.5231 -0.8522 0.0052
vn 0.5112 -0.8594 0.0091
vn 0.9688 -0.2479 -0.0014
vn 0.3367 -0.9404 0.0479
vn 0.9998 -0.0013 0.0184
vn 0.7216 -0.6916 0.0333
vn 1.0000 0.0000 0.0088
vn 0.9521 -0.3046 0.0250
usemtl stoneMaterial
s off
f 8/1/1 15/2/1 29/3/1 24/4/1
f 9/5/2 10/6/2 8/7/2 7/8/2
f 80/9/1 11/10/1 6/11/1 79/12/1
f 2/13/3 1/14/3 35/15/3 44/16/3 36/17/3
f 78/18/1 2/19/1 11/10/1 80/9/1
f 3/20/2 13/21/2 14/22/2 16/23/2
f 3/20/3 16/23/3 10/24/3 9/25/3
f 10/26/1 16/27/1 15/2/1 8/1/1
f 92/28/3 87/29/3 14/22/3 13/21/3
f 30/30/4 18/31/4 17/32/4 25/33/4
f 20/34/1 6/11/1 38/35/1 43/36/1
f 79/12/1 6/11/1 20/34/1 86/37/1
f 7/8/2 8/7/2 24/38/2 26/39/2 27/40/2 28/41/2 25/42/2 17/43/2
f 30/30/5 25/33/5 28/44/5 33/45/5
f 33/45/6 28/44/6 27/46/6 32/47/6
f 32/47/7 27/46/7 26/48/7 31/49/7
f 31/49/8 26/48/8 24/4/8 29/3/8
f 91/50/5 30/30/5 33/45/5 93/51/5
f 93/51/6 33/45/6 32/47/6 94/52/6
f 94/52/7 32/47/7 31/49/7 95/53/7
f 95/53/8 31/49/8 29/3/8 96/54/8
f 81/55/4 82/56/4 19/57/4 4/58/4
f 34/59/9 4/60/9 19/61/9 21/62/9 22/63/9 23/64/9
f 39/65/9 12/66/9 46/67/9 5/68/9 38/69/9
f 36/70/9 44/71/9 12/66/9 39/65/9
f 37/72/9 49/73/9 42/74/9
f 23/75/8 20/34/8 43/36/8 41/76/8
f 6/11/1 11/10/1 39/77/1 38/35/1
f 34/59/4 23/64/4 41/78/4 42/79/4
f 11/10/1 2/19/1 36/80/1 39/77/1
f 53/81/9 43/82/9 38/69/9
f 55/83/10 54/84/10 65/85/10 66/86/10
f 50/87/11 49/88/11 60/89/11 61/90/11
f 56/91/12 55/83/12 66/86/12 67/92/12
f 52/93/13 51/94/13 62/95/13 63/96/13
f 53/97/14 52/98/14 63/99/14 64/100/14
f 49/88/15 37/101/15 58/102/15 60/89/15
f 51/94/16 50/87/16 61/90/16 62/95/16
f 57/103/17 56/91/17 67/92/17 68/104/17
f 54/84/18 53/105/18 64/106/18 65/85/18
f 37/101/19 40/107/19 59/108/19 58/102/19
f 40/109/20 57/103/20 68/104/20 59/110/20
f 48/111/21 5/68/21 69/112/21 76/113/21
f 45/114/22 47/115/22 75/116/22 73/117/22
f 44/16/3 35/15/3 71/118/3 72/119/3
f 46/67/23 12/66/23 70/120/23 74/121/23
f 47/115/24 48/111/24 76/113/24 75/116/24
f 12/66/25 44/71/25 72/122/25 70/120/25
f 5/68/26 46/67/26 74/121/26 69/112/26
f 90/123/4 91/50/4 82/56/4 81/55/4
f 23/75/8 85/124/8 86/37/8 20/34/8
f 22/125/7 84/126/7 85/124/7 23/75/7
f 21/127/6 83/128/6 84/126/6 22/125/6
f 19/57/5 82/56/5 83/128/5 21/127/5
f 88/129/1 79/12/1 86/37/1 96/54/1
f 1/14/3 2/13/3 78/130/3 77/131/3
f 88/132/2 89/133/2 102/134/2 101/135/2
f 79/136/4 88/132/4 101/135/4 99/137/4
f 16/27/1 89/138/1 88/129/1 15/2/1
f 14/139/1 87/140/1 89/138/1 16/27/1
f 15/2/1 88/129/1 96/54/1 29/3/1
f 18/31/4 30/30/4 91/50/4 90/123/4
f 85/124/8 95/53/8 96/54/8 86/37/8
f 84/126/7 94/52/7 95/53/7 85/124/7
f 83/128/6 93/51/6 94/52/6 84/126/6
f 82/56/5 91/50/5 93/51/5 83/128/5
f 77/131/3 78/130/3 87/29/3 92/28/3
f 100/141/1 97/142/1 98/143/1 102/144/1
f 102/144/1 98/143/1 99/145/1 101/146/1
f 80/147/9 79/136/9 99/137/9 98/148/9
f 89/133/2 87/149/2 100/150/2 102/134/2
f 87/151/3 78/152/3 97/153/3 100/154/3
f 78/155/9 80/147/9 98/148/9 97/156/9
f 41/157/9 43/82/9 55/158/9
f 43/82/9 54/159/9 55/158/9
f 47/115/9 45/114/9 42/74/9
f 52/160/9 48/111/9 47/115/9
f 51/161/9 52/160/9 47/115/9
f 41/157/9 55/158/9 56/162/9
f 41/157/9 56/162/9 57/163/9
f 51/161/9 47/115/9 42/74/9
f 50/164/9 51/161/9 42/74/9
f 41/157/9 57/163/9 40/165/9
f 42/74/9 41/157/9 40/165/9
f 49/73/9 50/164/9 42/74/9
f 42/74/9 40/165/9 37/72/9
f 38/69/9 5/68/9 52/160/9
f 5/68/9 48/111/9 52/160/9
f 38/69/9 52/160/9 53/81/9
f 53/81/9 54/159/9 43/82/9
f 106/166/27 118/167/27 123/168/27 111/169/27
f 9/5/2 7/8/2 106/170/2 107/171/2
f 167/172/27 166/173/27 105/174/27 108/175/27
f 103/176/3 128/177/3 135/178/3 35/15/3 1/14/3
f 165/179/27 167/172/27 108/175/27 103/180/27
f 3/20/2 112/181/2 110/182/2 13/21/2
f 3/20/3 9/25/3 107/183/3 112/181/3
f 107/184/27 106/166/27 111/169/27 112/185/27
f 92/28/3 13/21/3 110/182/3 173/186/3
f 124/187/4 119/188/4 17/32/4 18/31/4
f 114/189/27 134/190/27 130/191/27 105/174/27
f 166/173/27 172/192/27 114/189/27 105/174/27
f 7/8/2 17/43/2 119/193/2 122/194/2 121/195/2 120/196/2 118/197/2 106/170/2
f 124/187/28 127/198/28 122/199/28 119/188/28
f 127/198/29 126/200/29 121/201/29 122/199/29
f 126/200/30 125/202/30 120/203/30 121/201/30
f 125/202/31 123/168/31 118/167/31 120/203/31
f 176/204/28 177/205/28 127/198/28 124/187/28
f 177/205/29 178/206/29 126/200/29 127/198/29
f 178/206/30 179/207/30 125/202/30 126/200/30
f 179/207/31 180/208/31 123/168/31 125/202/31
f 81/55/4 4/58/4 113/209/4 168/210/4
f 34/59/9 117/211/9 116/212/9 115/213/9 113/214/9 4/60/9
f 131/215/9 130/216/9 104/217/9 136/218/9 109/219/9
f 128/220/9 131/215/9 109/219/9 135/221/9
f 129/222/9 42/74/9 139/223/9
f 117/224/31 133/225/31 134/190/31 114/189/31
f 105/174/27 130/191/27 131/226/27 108/175/27
f 34/59/4 42/79/4 133/227/4 117/211/4
f 108/175/27 131/226/27 128/228/27 103/180/27
f 143/229/9 130/216/9 134/230/9
f 145/231/32 156/232/32 155/233/32 144/234/32
f 140/235/33 151/236/33 150/237/33 139/238/33
f 146/239/34 157/240/34 156/232/34 145/231/34
f 142/241/35 153/242/35 152/243/35 141/244/35
f 143/245/36 154/246/36 153/247/36 142/248/36
f 139/238/37 150/237/37 148/249/37 129/250/37
f 141/244/38 152/243/38 151/236/38 140/235/38
f 147/251/39 158/252/39 157/240/39 146/239/39
f 144/234/40 155/233/40 154/253/40 143/254/40
f 129/250/41 148/249/41 149/255/41 132/256/41
f 132/257/42 149/258/42 158/252/42 147/251/42
f 138/259/43 164/260/43 159/261/43 104/217/43
f 45/114/44 73/117/44 163/262/44 137/263/44
f 135/178/3 161/264/3 71/118/3 35/15/3
f 136/218/45 162/265/45 160/266/45 109/219/45
f 137/263/46 163/262/46 164/260/46 138/259/46
f 109/219/47 160/266/47 161/267/47 135/221/47
f 104/217/48 159/261/48 162/265/48 136/218/48
f 90/123/4 81/55/4 168/210/4 176/204/4
f 117/224/31 114/189/31 172/192/31 171/268/31
f 116/269/30 117/224/30 171/268/30 170/270/30
f 115/271/29 116/269/29 170/270/29 169/272/29
f 113/209/28 115/271/28 169/272/28 168/210/28
f 174/273/27 180/208/27 172/192/27 166/173/27
f 1/14/3 77/131/3 165/274/3 103/176/3
f 174/275/2 185/276/2 186/277/2 175/278/2
f 166/279/4 183/280/4 185/276/4 174/275/4
f 112/185/27 111/169/27 174/273/27 175/281/27
f 110/282/27 112/185/27 175/281/27 173/283/27
f 111/169/27 123/168/27 180/208/27 174/273/27
f 18/31/4 90/123/4 176/204/4 124/187/4
f 171/268/31 172/192/31 180/208/31 179/207/31
f 170/270/30 171/268/30 179/207/30 178/206/30
f 169/272/29 170/270/29 178/206/29 177/205/29
f 168/210/28 169/272/28 177/205/28 176/204/28
f 77/131/3 92/28/3 173/186/3 165/274/3
f 184/284/27 186/285/27 182/286/27 181/287/27
f 186/285/27 185/288/27 183/289/27 182/286/27
f 167/290/9 182/291/9 183/280/9 166/279/9
f 175/278/2 186/277/2 184/292/2 173/293/2
f 173/294/3 184/295/3 181/296/3 165/297/3
f 165/298/9 181/299/9 182/291/9 167/290/9
f 133/300/9 145/301/9 134/230/9
f 134/230/9 145/301/9 144/302/9
f 137/263/9 42/74/9 45/114/9
f 142/303/9 137/263/9 138/259/9
f 141/304/9 137/263/9 142/303/9
f 133/300/9 146/305/9 145/301/9
f 133/300/9 147/306/9 146/305/9
f 141/304/9 42/74/9 137/263/9
f 140/307/9 42/74/9 141/304/9
f 133/300/9 132/308/9 147/306/9
f 42/74/9 132/308/9 133/300/9
f 139/223/9 42/74/9 140/307/9
f 42/74/9 129/222/9 132/308/9
f 130/216/9 142/303/9 104/217/9
f 104/217/9 142/303/9 138/259/9
f 130/216/9 143/229/9 142/303/9
f 143/229/9 134/230/9 144/302/9
