# Blender v3.0.1 OBJ File: 'churchFull.blend'
# www.blender.org
mtllib clock.mtl
o reloj_Cube.001
v -1.000000 0.000000 1.000000
v -0.741409 0.587633 0.592850
v -1.000000 0.000000 -1.000000
v -0.741409 0.587633 -0.592850
v 1.000000 0.000000 1.000000
v 0.741409 0.439074 0.741409
v 1.000000 0.000000 -1.000000
v 0.741409 0.439074 -0.741409
v -1.000000 0.331052 1.000000
v -1.000000 0.331052 -1.000000
v 1.000000 0.331052 -1.000000
v 1.000000 0.331052 1.000000
v -0.741409 3.513978 0.592850
v -0.741409 3.513978 -0.592850
v 0.741409 3.662537 -0.741409
v 0.741409 3.662537 0.741409
v -0.879283 3.662537 0.879283
v -0.879283 3.662537 -0.879283
v 0.879283 3.662537 -0.879283
v 0.879283 3.662537 0.879283
v -0.879283 5.132277 0.879283
v -0.879283 5.132277 -0.879283
v 0.879283 5.132277 -0.879283
v 0.879283 5.132277 0.879283
v -0.741409 0.439074 0.741409
v -0.741409 0.439074 -0.741409
v -0.741409 3.662537 0.741409
v -0.741409 3.662537 -0.741409
v 0.173475 0.587633 0.592850
v 0.173475 0.587633 -0.592850
v 0.173475 3.513978 0.592850
v 0.173475 3.513978 -0.592850
v -0.580158 5.132277 0.879283
v -0.580158 5.132277 -0.879283
v -0.947513 5.316715 1.021341
v -0.947513 5.316715 -1.021341
v -0.618632 5.316715 -1.021341
v 0.985988 5.316715 -1.021341
v 0.985988 5.316715 1.021341
v -0.618632 5.316715 1.021341
v -0.947513 5.524497 1.021341
v -0.947513 5.524497 -1.021341
v -0.618632 5.524497 1.021341
v -0.618632 5.524497 -1.021341
v -0.876948 6.183596 0.583055
v -0.876948 6.183596 -0.583055
v -0.689199 6.183596 0.583055
v -0.689199 6.183596 -0.583055
vt 0.596143 0.026663
vt 0.591777 0.040318
vt 0.515447 0.014510
vt 0.513652 0.000286
vt 0.430721 0.058040
vt 0.412470 0.045266
vt 0.377323 0.216371
vt 0.337001 0.225062
vt 0.582300 0.515327
vt 0.532833 0.553547
vt 0.000286 0.827929
vt 0.000286 0.619370
vt 0.208846 0.619370
vt 0.208846 0.827929
vt 0.336428 0.000286
vt 0.336428 0.154914
vt 0.000287 0.154914
vt 0.000287 0.000286
vt 0.577829 0.048725
vt 0.517022 0.031033
vt 0.449822 0.074786
vt 0.426240 0.213623
vt 0.596143 0.443407
vt 0.764358 0.198046
vt 0.764358 0.352674
vt 0.749980 0.367051
vt 0.749980 0.183669
vt 0.336428 0.309542
vt 0.336428 0.464169
vt 0.000287 0.464169
vt 0.000287 0.309542
vt 0.577110 0.554120
vt 0.577110 0.859278
vt 0.481706 0.859278
vt 0.481706 0.554120
vt 0.749980 0.000286
vt 0.596716 0.183669
vt 0.596716 0.000286
vt 0.764358 0.014664
vt 0.764358 0.169291
vt 0.764358 0.381429
vt 0.764358 0.536056
vt 0.749980 0.550434
vt 0.764358 0.564811
vt 0.764358 0.719439
vt 0.749980 0.733816
vt 0.916657 0.023052
vt 0.787151 0.102990
vt 0.764931 0.088176
vt 0.907319 0.000286
vt 0.596716 0.550434
vt 0.596716 0.367051
vt 0.596716 0.733816
vt 0.596716 0.581626
vt 0.596716 0.335859
vt 0.320936 0.603305
vt 0.320936 0.479661
vt 0.336428 0.618797
vt 0.015778 0.479661
vt 0.015778 0.603305
vt 0.000286 0.618797
vt 0.888575 0.694806
vt 0.764931 0.694806
vt 0.764931 0.389648
vt 0.888575 0.389648
vt 0.642159 0.904310
vt 0.765803 0.904310
vt 0.765803 0.999713
vt 0.642159 0.999713
vt 0.337001 0.904310
vt 0.337001 0.999713
vt 0.000286 0.828502
vt 0.123931 0.828502
vt 0.123931 0.923906
vt 0.000286 0.923906
vt 0.596716 0.901718
vt 0.596716 0.734389
vt 0.809726 0.734389
vt 0.809726 0.901718
vt 0.787151 0.286372
vt 0.916657 0.366309
vt 0.907320 0.389075
vt 0.764931 0.301186
vt 0.393821 0.899485
vt 0.388124 0.870204
vt 0.403578 0.866228
vt 0.420494 0.892220
vt 0.366924 0.868836
vt 0.337001 0.676547
vt 0.356070 0.657684
vt 0.366619 0.903737
vt 0.447682 0.555641
vt 0.481133 0.554120
vt 0.478014 0.580350
vt 0.441236 0.582022
vt 0.464724 0.815394
vt 0.481133 0.822863
vt 0.479071 0.603586
vt 0.442292 0.605258
vt 0.209419 0.832380
vt 0.209419 0.619370
vt 0.231086 0.619370
vt 0.231086 0.832380
vt 0.378650 0.653665
vt 0.475204 0.692459
vt 0.454208 0.693414
vt 0.300210 0.665074
vt 0.300210 0.786676
vn -1.0000 0.0000 0.0000
vn 0.0000 0.0000 -1.0000
vn 1.0000 0.0000 0.0000
vn 0.0000 0.0000 1.0000
vn 0.0000 -1.0000 0.0000
vn -0.3855 0.9227 0.0000
vn 0.0000 0.9227 -0.3855
vn 0.3855 0.9227 0.0000
vn 0.0000 0.9227 0.3855
vn 0.0000 -0.6102 0.7922
vn 0.0000 1.0000 0.0000
vn 0.0000 -0.6102 -0.7922
vn 0.8656 -0.5008 0.0000
vn -0.9379 -0.3470 0.0000
vn 0.0000 0.5537 -0.8327
vn -0.9943 0.1065 0.0000
vn 0.9943 0.1065 0.0000
vn 0.0000 0.5537 0.8327
usemtl Material
s off
f 1/1/1 9/2/1 10/3/1 3/4/1
f 3/4/2 10/3/2 11/5/2 7/6/2
f 7/6/3 11/5/3 12/7/3 5/8/3
f 5/8/4 12/7/4 9/9/4 1/10/4
f 3/11/5 7/12/5 5/13/5 1/14/5
f 25/15/4 6/16/4 16/17/4 27/18/4
f 25/19/6 26/20/6 10/3/6 9/2/6
f 26/20/7 8/21/7 11/5/7 10/3/7
f 8/21/8 6/22/8 12/7/8 11/5/8
f 6/22/9 25/23/9 9/9/9 12/7/9
f 15/24/5 28/25/5 18/26/5 19/27/5
f 8/28/2 26/29/2 28/30/2 15/31/2
f 6/16/3 8/28/3 15/31/3 16/17/3
f 2/32/2 13/33/2 31/34/2 29/35/2
f 20/36/3 19/27/3 23/37/3 24/38/3
f 16/39/5 15/40/5 19/27/5 20/36/5
f 28/41/5 27/42/5 17/43/5 18/26/5
f 27/44/5 16/45/5 20/46/5 17/43/5
f 33/47/10 24/48/10 39/49/10 40/50/10
f 18/26/1 17/43/1 21/51/1 22/52/1
f 17/43/4 20/46/4 24/53/4 33/54/4 21/51/4
f 19/27/2 18/26/2 22/52/2 34/55/2 23/37/2
f 2/56/1 4/57/1 26/29/1 25/58/1
f 14/59/1 13/60/1 27/61/1 28/30/1
f 13/60/1 2/56/1 25/58/1 27/61/1
f 4/57/1 14/59/1 28/30/1 26/29/1
f 30/62/1 29/63/1 31/64/1 32/65/1
f 4/66/11 2/67/11 29/68/11 30/69/11
f 14/70/4 4/66/4 30/69/4 32/71/4
f 13/72/5 14/73/5 32/74/5 31/75/5
f 38/76/11 37/77/11 40/78/11 39/79/11
f 23/80/12 34/81/12 37/82/12 38/83/12
f 37/84/2 36/85/2 42/86/2 44/87/2
f 24/48/13 23/80/13 38/83/13 39/49/13
f 22/88/14 21/89/14 35/90/14 36/85/14
f 34/91/12 22/88/12 36/85/12 37/84/12
f 21/92/10 33/93/10 40/94/10 35/95/10
f 44/87/15 42/86/15 46/96/15 48/97/15
f 35/95/4 40/94/4 43/98/4 41/99/4
f 40/100/3 37/101/3 44/102/3 43/103/3
f 36/85/1 35/90/1 41/104/1 42/86/1
f 47/105/11 48/97/11 46/96/11 45/106/11
f 42/86/16 41/104/16 45/106/16 46/96/16
f 43/103/17 44/102/17 48/107/17 47/108/17
f 41/99/18 43/98/18 47/105/18 45/106/18
