# Blender v3.0.1 OBJ File: 'churchFull.blend'
# www.blender.org
mtllib clock.mtl
o reloj_Cube.001
v -1.000000 0.000000 1.000000
v -0.741409 0.587633 0.592850
v -1.000000 0.000000 -1.000000
v -0.741409 0.587633 -0.592850
v 1.000000 0.000000 1.000000
v 0.741409 0.439074 0.741409
v 1.000000 0.000000 -1.000000
v 0.741409 0.439074 -0.741409
v -1.000000 0.331052 1.000000
v -1.000000 0.331052 -1.000000
v 1.000000 0.331052 -1.000000
v 1.000000 0.331052 1.000000
v -0.741409 3.513978 0.592850
v -0.741409 3.513978 -0.592850
v 0.741409 3.662537 -0.741409
v 0.741409 3.662537 0.741409
v -0.879283 3.662537 0.879283
v -0.879283 3.662537 -0.879283
v 0.879283 3.662537 -0.879283
v 0.879283 3.662537 0.879283
v -0.879283 5.132277 0.879283
v -0.879283 5.132277 -0.879283
v 0.879283 5.132277 -0.879283
v 0.879283 5.132277 0.879283
v -0.741409 0.439074 0.741409
v -0.741409 0.439074 -0.741409
v -0.741409 3.662537 0.741409
v -0.741409 3.662537 -0.741409
v 0.173475 0.587633 0.592850
v 0.173475 0.587633 -0.592850
v 0.173475 3.513978 0.592850
v 0.173475 3.513978 -0.592850
v -0.580158 5.132277 0.879283
v -0.580158 5.132277 -0.879283
v -0.947513 5.316715 1.021341
v -0.947513 5.316715 -1.021341
v -0.618632 5.316715 -1.021341
v 0.985988 5.316715 -1.021341
v 0.985988 5.316715 1.021341
v -0.618632 5.316715 1.021341
v -0.947513 5.524497 1.021341
v -0.947513 5.524497 -1.021341
v -0.618632 5.524497 1.021341
v -0.618632 5.524497 -1.021341
v -0.876948 6.183596 0.583055
v -0.876948 6.183596 -0.583055
v -0.689199 6.183596 0.583055
v -0.689199 6.183596 -0.583055
vt 0.375000 0.000000
vt 0.625000 0.000000
vt 0.625000 0.250000
vt 0.375000 0.250000
vt 0.625000 0.500000
vt 0.375000 0.500000
vt 0.625000 0.750000
vt 0.375000 0.750000
vt 0.625000 1.000000
vt 0.375000 1.000000
vt 0.125000 0.500000
vt 0.125000 0.750000
vt 0.842676 0.717676
vt 0.657324 0.717676
vt 0.657324 0.717676
vt 0.842676 0.717676
vt 0.842676 0.532324
vt 0.875000 0.500000
vt 0.875000 0.750000
vt 0.657324 0.532324
vt 0.657324 0.532324
vt 0.842676 0.532324
vt 0.842676 0.532324
vt 0.657324 0.532324
vt 0.842676 0.699106
vt 0.842676 0.699106
vt 0.842676 0.699106
vt 0.842676 0.699106
vt 0.657324 0.717676
vt 0.657324 0.532324
vt 0.657324 0.717676
vt 0.842676 0.717676
vt 0.750000 0.717676
vt 0.657324 0.717676
vt 0.750000 0.717676
vt 0.842676 0.717676
vt 0.842676 0.532324
vt 0.750000 0.532324
vt 0.842676 0.550894
vt 0.842676 0.550894
vt 0.842676 0.550894
vt 0.842676 0.550894
vt 0.657324 0.532324
vt 0.750000 0.532324
vt 0.842676 0.532324
vt 0.842676 0.532324
vt 0.750000 0.532324
vt 0.842676 0.717676
vt 0.842676 0.532324
vt 0.750000 0.532324
vt 0.750000 0.717676
vt 0.842676 0.717676
vt 0.750000 0.717676
vt 0.842676 0.717676
vn -1.0000 0.0000 0.0000
vn 0.0000 0.0000 -1.0000
vn 1.0000 0.0000 0.0000
vn 0.0000 0.0000 1.0000
vn 0.0000 -1.0000 0.0000
vn -0.3855 0.9227 0.0000
vn 0.0000 0.9227 -0.3855
vn 0.3855 0.9227 0.0000
vn 0.0000 0.9227 0.3855
vn 0.0000 -0.6102 0.7922
vn 0.0000 1.0000 0.0000
vn 0.0000 -0.6102 -0.7922
vn 0.8656 -0.5008 0.0000
vn -0.9379 -0.3470 0.0000
vn 0.0000 0.5537 -0.8327
vn -0.9943 0.1065 0.0000
vn 0.9943 0.1065 0.0000
vn 0.0000 0.5537 0.8327
usemtl None
s off
f 1/1/1 9/2/1 10/3/1 3/4/1
f 3/4/2 10/3/2 11/5/2 7/6/2
f 7/6/3 11/5/3 12/7/3 5/8/3
f 5/8/4 12/7/4 9/9/4 1/10/4
f 3/11/5 7/6/5 5/8/5 1/12/5
f 25/13/4 6/14/4 16/15/4 27/16/4
f 25/13/6 26/17/6 10/18/6 9/19/6
f 26/17/7 8/20/7 11/5/7 10/18/7
f 8/20/8 6/14/8 12/7/8 11/5/8
f 6/14/9 25/13/9 9/19/9 12/7/9
f 15/21/5 28/22/5 18/23/5 19/24/5
f 8/20/2 26/17/2 28/22/2 15/21/2
f 6/14/3 8/20/3 15/21/3 16/15/3
f 2/25/2 13/26/2 31/27/2 29/28/2
f 20/29/3 19/24/3 23/30/3 24/31/3
f 16/15/5 15/21/5 19/24/5 20/29/5
f 28/22/5 27/16/5 17/32/5 18/23/5
f 27/16/5 16/15/5 20/29/5 17/32/5
f 33/33/10 24/31/10 39/34/10 40/35/10
f 18/23/1 17/32/1 21/36/1 22/37/1
f 17/32/4 20/29/4 24/31/4 33/33/4 21/36/4
f 19/24/2 18/23/2 22/37/2 34/38/2 23/30/2
f 2/25/1 4/39/1 26/17/1 25/13/1
f 14/40/1 13/26/1 27/16/1 28/22/1
f 13/26/1 2/25/1 25/13/1 27/16/1
f 4/39/1 14/40/1 28/22/1 26/17/1
f 30/41/1 29/28/1 31/27/1 32/42/1
f 4/39/11 2/25/11 29/28/11 30/41/11
f 14/40/4 4/39/4 30/41/4 32/42/4
f 13/26/5 14/40/5 32/42/5 31/27/5
f 38/43/11 37/44/11 40/35/11 39/34/11
f 23/30/12 34/38/12 37/44/12 38/43/12
f 37/44/2 36/45/2 42/46/2 44/47/2
f 24/31/13 23/30/13 38/43/13 39/34/13
f 22/37/14 21/36/14 35/48/14 36/45/14
f 34/38/12 22/37/12 36/45/12 37/44/12
f 21/36/10 33/33/10 40/35/10 35/48/10
f 44/47/15 42/46/15 46/49/15 48/50/15
f 35/48/4 40/35/4 43/51/4 41/52/4
f 40/35/3 37/44/3 44/47/3 43/51/3
f 36/45/1 35/48/1 41/52/1 42/46/1
f 47/53/11 48/50/11 46/49/11 45/54/11
f 42/46/16 41/52/16 45/54/16 46/49/16
f 43/51/17 44/47/17 48/50/17 47/53/17
f 41/52/18 43/51/18 47/53/18 45/54/18
