# Blender v3.0.1 OBJ File: 'churchFull.blend'
# www.blender.org
o columna_Cube_Cube.002
v 19.510847 -0.000000 1.489154
v 19.510847 2.000000 1.489154
v 19.510847 2.000000 -1.489154
v 19.510847 0.000000 -1.489154
v 22.489153 2.000000 -1.489154
v 22.489153 0.000000 -1.489154
v 22.489153 2.000000 1.489154
v 22.489153 -0.000000 1.489154
v 22.034847 2.000000 -1.034848
v 22.034847 2.000000 1.034848
v 19.965153 2.000000 1.034848
v 22.034847 25.079323 1.034849
v 19.965153 25.079323 1.034849
v 19.965153 2.000000 -1.034848
v 22.034847 25.079323 -1.034847
v 19.965153 25.079323 -1.034847
v 19.540989 25.079323 -1.459011
v 22.459011 25.079323 -1.459011
v 22.459011 25.079323 1.459013
v 22.459011 28.099070 -1.459011
v 22.459011 28.099070 1.459013
v 19.540989 25.079323 1.459013
v 19.540989 28.099070 1.459013
v 22.459011 31.020506 1.459013
v 19.540989 31.020506 1.459013
v 19.540989 28.099070 -1.459011
v 22.459011 31.020506 -1.459011
v 19.540989 31.020506 -1.459011
v 24.533127 28.666626 1.459013
v 24.533127 31.588062 1.459013
v 1.503153 37.999008 -1.459011
v 1.503153 35.077572 -1.459011
v 0.000000 35.099072 -1.459011
v 0.000000 38.020508 -1.459011
v 26.411222 29.137922 1.459013
v 26.411222 32.059361 1.459013
v 24.533127 31.588062 -1.459011
v 24.533127 28.666626 -1.459011
v 26.411222 29.137922 -1.459011
v 26.411222 32.059361 -1.459011
v 28.593195 32.404655 -1.459011
v 28.593195 29.483217 -1.459011
v 28.593195 32.404655 1.459013
v 28.593195 29.483217 1.459013
v 30.967825 29.611959 1.459013
v 30.967825 32.533398 1.459013
v 30.967825 29.611959 -1.459011
v 30.967825 32.533398 -1.459011
v 0.000000 35.099072 1.459013
v 0.000000 38.020508 1.459013
v 1.503153 37.999008 1.459013
v 1.503153 35.077572 1.459013
v 18.037836 30.492163 1.459013
v 18.037836 30.492163 -1.459011
v 16.534683 31.654146 1.459013
v 16.534683 31.654146 -1.459011
v 15.031529 32.452141 1.459013
v 15.031530 32.452141 -1.459011
v 13.528377 33.064842 1.459013
v 13.528378 33.064842 -1.459011
v 12.025224 33.555031 1.459013
v 12.025225 33.555031 -1.459011
v 10.522071 33.953568 1.459013
v 10.522072 33.953568 -1.459011
v 9.018918 34.278206 1.459013
v 9.018919 34.278206 -1.459011
v 7.515765 34.540134 1.459013
v 7.515766 34.540134 -1.459011
v 6.012612 34.746769 1.459013
v 6.012612 34.746769 -1.459011
v 4.509459 34.903145 1.459013
v 4.509459 34.903145 -1.459011
v 3.006306 35.012676 1.459013
v 3.006306 35.012676 -1.459011
v 18.037836 33.413601 1.459013
v 16.534683 34.575584 1.459013
v 15.031529 35.373577 1.459013
v 13.528377 35.986279 1.459013
v 12.025224 36.476467 1.459013
v 10.522071 36.875004 1.459013
v 9.018918 37.199642 1.459013
v 7.515765 37.461571 1.459013
v 6.012612 37.668205 1.459013
v 4.509459 37.824581 1.459013
v 3.006306 37.934113 1.459013
v 18.037836 33.413601 -1.459011
v 16.534683 34.575584 -1.459011
v 15.031529 35.373577 -1.459011
v 13.528377 35.986279 -1.459011
v 12.025224 36.476467 -1.459011
v 10.522071 36.875004 -1.459011
v 9.018918 37.199642 -1.459011
v 7.515765 37.461571 -1.459011
v 6.012612 37.668205 -1.459011
v 4.509459 37.824581 -1.459011
v 3.006306 37.934113 -1.459011
v -19.510847 -0.000000 1.489154
v -19.510847 2.000000 1.489154
v -19.510847 2.000000 -1.489154
v -19.510847 0.000000 -1.489154
v -22.489153 2.000000 -1.489154
v -22.489153 0.000000 -1.489154
v -22.489153 2.000000 1.489154
v -22.489153 -0.000000 1.489154
v -22.034847 2.000000 -1.034848
v -22.034847 2.000000 1.034848
v -19.965153 2.000000 1.034848
v -22.034847 25.079323 1.034849
v -19.965153 25.079323 1.034849
v -19.965153 2.000000 -1.034848
v -22.034847 25.079323 -1.034847
v -19.965153 25.079323 -1.034847
v -19.540989 25.079323 -1.459011
v -22.459011 25.079323 -1.459011
v -22.459011 25.079323 1.459013
v -22.459011 28.099070 -1.459011
v -22.459011 28.099070 1.459013
v -19.540989 25.079323 1.459013
v -19.540989 28.099070 1.459013
v -22.459011 31.020506 1.459013
v -19.540989 31.020506 1.459013
v -19.540989 28.099070 -1.459011
v -22.459011 31.020506 -1.459011
v -19.540989 31.020506 -1.459011
v -24.533127 28.666626 1.459013
v -24.533127 31.588062 1.459013
v -1.503153 37.999008 -1.459011
v -1.503153 35.077572 -1.459011
v -26.411222 29.137922 1.459013
v -26.411222 32.059361 1.459013
v -24.533127 31.588062 -1.459011
v -24.533127 28.666626 -1.459011
v -26.411222 29.137922 -1.459011
v -26.411222 32.059361 -1.459011
v -28.593195 32.404655 -1.459011
v -28.593195 29.483217 -1.459011
v -28.593195 32.404655 1.459013
v -28.593195 29.483217 1.459013
v -30.967825 29.611959 1.459013
v -30.967825 32.533398 1.459013
v -30.967825 29.611959 -1.459011
v -30.967825 32.533398 -1.459011
v -1.503153 37.999008 1.459013
v -1.503153 35.077572 1.459013
v -18.037836 30.492163 1.459013
v -18.037836 30.492163 -1.459011
v -16.534683 31.654146 1.459013
v -16.534683 31.654146 -1.459011
v -15.031529 32.452141 1.459013
v -15.031530 32.452141 -1.459011
v -13.528377 33.064842 1.459013
v -13.528378 33.064842 -1.459011
v -12.025224 33.555031 1.459013
v -12.025225 33.555031 -1.459011
v -10.522071 33.953568 1.459013
v -10.522072 33.953568 -1.459011
v -9.018918 34.278206 1.459013
v -9.018919 34.278206 -1.459011
v -7.515765 34.540134 1.459013
v -7.515766 34.540134 -1.459011
v -6.012612 34.746769 1.459013
v -6.012612 34.746769 -1.459011
v -4.509459 34.903145 1.459013
v -4.509459 34.903145 -1.459011
v -3.006306 35.012676 1.459013
v -3.006306 35.012676 -1.459011
v -18.037836 33.413601 1.459013
v -16.534683 34.575584 1.459013
v -15.031529 35.373577 1.459013
v -13.528377 35.986279 1.459013
v -12.025224 36.476467 1.459013
v -10.522071 36.875004 1.459013
v -9.018918 37.199642 1.459013
v -7.515765 37.461571 1.459013
v -6.012612 37.668205 1.459013
v -4.509459 37.824581 1.459013
v -3.006306 37.934113 1.459013
v -18.037836 33.413601 -1.459011
v -16.534683 34.575584 -1.459011
v -15.031529 35.373577 -1.459011
v -13.528377 35.986279 -1.459011
v -12.025224 36.476467 -1.459011
v -10.522071 36.875004 -1.459011
v -9.018918 37.199642 -1.459011
v -7.515765 37.461571 -1.459011
v -6.012612 37.668205 -1.459011
v -4.509459 37.824581 -1.459011
v -3.006306 37.934113 -1.459011
vt 0.262472 0.941014
vt 0.262472 0.999698
vt 0.175082 0.999698
vt 0.175082 0.941014
vt 0.087692 0.999698
vt 0.087692 0.941014
vt 0.000302 0.999698
vt 0.000302 0.941014
vt 0.349862 0.941014
vt 0.349862 0.999698
vt 0.914899 0.853488
vt 0.827509 0.853488
vt 0.827509 0.766098
vt 0.914899 0.766098
vt 0.827509 0.678104
vt 0.914899 0.678104
vt 0.901569 0.691434
vt 0.840839 0.691434
vt 0.863951 0.000302
vt 0.924681 0.000302
vt 0.924681 0.677499
vt 0.863951 0.677500
vt 0.914899 0.765494
vt 0.827509 0.765494
vt 0.840839 0.752164
vt 0.901569 0.752164
vt 0.728233 0.802181
vt 0.728233 0.741452
vt 0.740679 0.729006
vt 0.740679 0.814627
vt 0.925285 0.000302
vt 0.986015 0.000302
vt 0.986015 0.677499
vt 0.925285 0.677499
vt 0.802617 0.000302
vt 0.863347 0.000302
vt 0.863347 0.677500
vt 0.802617 0.677500
vt 0.802013 0.677500
vt 0.741283 0.677500
vt 0.741283 0.000302
vt 0.802013 0.000302
vt 0.916115 0.854093
vt 0.916115 0.939714
vt 0.827509 0.939714
vt 0.827509 0.854093
vt 0.667504 0.802181
vt 0.655058 0.814627
vt 0.667504 0.741452
vt 0.655058 0.729006
vt 0.279245 0.385844
vt 0.364864 0.386414
vt 0.364293 0.472133
vt 0.278674 0.471563
vt 1.061918 0.321541
vt 1.061918 0.407162
vt 0.973312 0.407162
vt 0.973312 0.321541
vt 0.279835 0.297240
vt 0.365454 0.297810
vt 0.200223 0.301565
vt 0.285821 0.299564
vt 0.287892 0.388146
vt 0.202294 0.390147
vt 0.846944 0.532926
vt 0.761323 0.532926
vt 0.761323 0.447305
vt 0.846944 0.447305
vt 0.289895 0.473844
vt 0.204297 0.475845
vt 0.425611 0.403472
vt 0.425040 0.489192
vt 0.823804 0.666186
vt 0.821802 0.580488
vt 0.865910 0.580088
vt 0.867913 0.665786
vt 0.480626 0.417668
vt 0.480054 0.503387
vt 0.910040 0.447305
vt 0.910040 0.532926
vt 0.143844 0.493916
vt 0.141841 0.408218
vt 0.741283 0.678104
vt 0.826904 0.678104
vt 0.826904 0.741200
vt 0.741283 0.741200
vt 0.087071 0.423331
vt 0.089074 0.509028
vt 0.025305 0.520654
vt 0.023302 0.434956
vt 0.826904 0.798016
vt 0.741283 0.798016
vt 0.966856 0.447305
vt 0.966856 0.532926
vt 0.544010 0.513945
vt 0.544580 0.428226
vt 0.614231 0.432467
vt 0.613660 0.518187
vt 1.031677 0.447305
vt 1.031677 0.532926
vt 0.826904 0.862837
vt 0.741283 0.862837
vt 0.826904 0.932616
vt 0.741283 0.932616
vt -0.044265 0.526058
vt -0.046268 0.440360
vt 1.101456 0.447305
vt 1.101456 0.532926
vt 0.165940 0.447305
vt 0.165939 0.532926
vt 0.121829 0.532926
vt 0.121829 0.447305
vt -0.251377 0.587079
vt -0.251948 0.672798
vt -0.296057 0.673136
vt -0.295486 0.587416
vt 0.377929 0.321541
vt 0.377929 0.407162
vt 0.333819 0.407162
vt 0.333819 0.321541
vt 0.890391 0.407162
vt 0.890391 0.321541
vt 0.834643 0.407162
vt 0.834643 0.321541
vt 0.784707 0.407162
vt 0.784707 0.321541
vt 0.737078 0.407162
vt 0.737078 0.321541
vt 0.690686 0.407162
vt 0.690686 0.321541
vt 0.645056 0.407162
vt 0.645056 0.321541
vt 0.599934 0.407162
vt 0.599934 0.321541
vt 0.555163 0.407162
vt 0.555163 0.321541
vt 0.510642 0.407162
vt 0.510643 0.321541
vt 0.466299 0.407162
vt 0.466299 0.321541
vt 0.422076 0.407162
vt 0.422076 0.321541
vt 0.234102 0.541486
vt 0.234673 0.455767
vt 0.189770 0.575287
vt 0.190341 0.489568
vt 0.145509 0.598408
vt 0.146080 0.512688
vt 0.101284 0.616092
vt 0.101855 0.530372
vt 0.057084 0.630181
vt 0.057655 0.544461
vt 0.012901 0.641581
vt 0.013472 0.555861
vt -0.031267 0.650812
vt -0.030696 0.565093
vt -0.075423 0.658204
vt -0.074852 0.572485
vt -0.119569 0.663973
vt -0.118998 0.578254
vt -0.163704 0.668268
vt -0.163133 0.582548
vt -0.207830 0.671188
vt -0.207259 0.585468
vt 0.678401 0.532926
vt 0.678401 0.447305
vt 0.622653 0.532926
vt 0.622653 0.447305
vt 0.572718 0.532926
vt 0.572717 0.447305
vt 0.525088 0.532926
vt 0.525088 0.447305
vt 0.478697 0.532926
vt 0.478697 0.447305
vt 0.433067 0.532926
vt 0.433067 0.447305
vt 0.387944 0.532926
vt 0.387944 0.447305
vt 0.343174 0.532926
vt 0.343174 0.447305
vt 0.298653 0.532926
vt 0.298653 0.447305
vt 0.254309 0.532926
vt 0.254309 0.447305
vt 0.210086 0.532926
vt 0.210086 0.447305
vt 0.333626 0.457315
vt 0.335629 0.543013
vt 0.378517 0.490370
vt 0.380520 0.576068
vt 0.423158 0.512748
vt 0.425161 0.598446
vt 0.467671 0.529691
vt 0.469674 0.615388
vt 0.512101 0.543039
vt 0.514104 0.628737
vt 0.556468 0.553699
vt 0.558471 0.639397
vt 0.600785 0.562192
vt 0.602787 0.647890
vt 0.645058 0.568845
vt 0.647061 0.654543
vt 0.689293 0.573875
vt 0.691296 0.659574
vt 0.733494 0.577432
vt 0.735497 0.663130
vt 0.777663 0.579615
vt 0.779666 0.665313
vt 0.262472 0.941014
vt 0.175082 0.941014
vt 0.175082 0.999698
vt 0.262472 0.999698
vt 0.087692 0.941014
vt 0.087692 0.999698
vt 0.000302 0.941014
vt 0.000302 0.999698
vt 0.349862 0.941014
vt 0.349862 0.999698
vt 0.914899 0.853488
vt 0.914899 0.766098
vt 0.827509 0.766098
vt 0.827509 0.853488
vt 0.827509 0.678104
vt 0.840839 0.691434
vt 0.901569 0.691434
vt 0.914899 0.678104
vt 0.863951 0.000302
vt 0.863951 0.677500
vt 0.924681 0.677499
vt 0.924681 0.000302
vt 0.914899 0.765494
vt 0.901569 0.752164
vt 0.840839 0.752164
vt 0.827509 0.765494
vt 0.728233 0.802181
vt 0.740679 0.814627
vt 0.740679 0.729006
vt 0.728233 0.741452
vt 0.925285 0.000302
vt 0.925285 0.677499
vt 0.986015 0.677499
vt 0.986015 0.000302
vt 0.802617 0.000302
vt 0.802617 0.677500
vt 0.863347 0.677500
vt 0.863347 0.000302
vt 0.802013 0.677500
vt 0.802013 0.000302
vt 0.741283 0.000302
vt 0.741283 0.677500
vt 0.916115 0.854093
vt 0.827509 0.854093
vt 0.827509 0.939714
vt 0.916115 0.939714
vt 0.667504 0.802181
vt 0.655058 0.814627
vt 0.655058 0.729006
vt 0.667504 0.741452
vt 0.279245 0.385844
vt 0.278674 0.471563
vt 0.364293 0.472133
vt 0.364864 0.386414
vt 1.061918 0.321541
vt 0.973312 0.321541
vt 0.973312 0.407162
vt 1.061918 0.407162
vt 0.279835 0.297240
vt 0.365454 0.297810
vt 0.200223 0.301565
vt 0.202294 0.390147
vt 0.287892 0.388146
vt 0.285821 0.299564
vt 0.846944 0.532926
vt 0.846944 0.447305
vt 0.761323 0.447305
vt 0.761323 0.532926
vt 0.204297 0.475845
vt 0.289895 0.473844
vt 0.425040 0.489192
vt 0.425611 0.403472
vt 0.823804 0.666186
vt 0.821802 0.580488
vt 0.480054 0.503387
vt 0.480626 0.417668
vt 0.910040 0.532926
vt 0.910040 0.447305
vt 0.141841 0.408218
vt 0.143844 0.493916
vt 0.741283 0.678104
vt 0.741283 0.741200
vt 0.826904 0.741200
vt 0.826904 0.678104
vt 0.087071 0.423331
vt 0.023302 0.434956
vt 0.025305 0.520654
vt 0.089074 0.509028
vt 0.741283 0.798016
vt 0.826904 0.798016
vt 0.966856 0.532926
vt 0.966856 0.447305
vt 0.544010 0.513945
vt 0.613660 0.518187
vt 0.614231 0.432467
vt 0.544580 0.428226
vt 1.031677 0.532926
vt 1.031677 0.447305
vt 0.741283 0.862837
vt 0.826904 0.862837
vt 0.741283 0.932616
vt 0.826904 0.932616
vt -0.046268 0.440360
vt -0.044265 0.526058
vt 1.101456 0.532926
vt 1.101456 0.447305
vt 0.165940 0.447305
vt 0.165939 0.532926
vt -0.251377 0.587079
vt -0.251948 0.672798
vt 0.377929 0.321541
vt 0.377929 0.407162
vt 0.890391 0.321541
vt 0.890391 0.407162
vt 0.834643 0.321541
vt 0.834643 0.407162
vt 0.784707 0.321541
vt 0.784707 0.407162
vt 0.737078 0.321541
vt 0.737078 0.407162
vt 0.690686 0.321541
vt 0.690686 0.407162
vt 0.645056 0.321541
vt 0.645056 0.407162
vt 0.599934 0.321541
vt 0.599934 0.407162
vt 0.555163 0.321541
vt 0.555163 0.407162
vt 0.510643 0.321541
vt 0.510642 0.407162
vt 0.466299 0.321541
vt 0.466299 0.407162
vt 0.422076 0.321541
vt 0.422076 0.407162
vt 0.234673 0.455767
vt 0.234102 0.541486
vt 0.190341 0.489568
vt 0.189770 0.575287
vt 0.146080 0.512688
vt 0.145509 0.598408
vt 0.101855 0.530372
vt 0.101284 0.616092
vt 0.057655 0.544461
vt 0.057084 0.630181
vt 0.013472 0.555861
vt 0.012901 0.641581
vt -0.030696 0.565093
vt -0.031267 0.650812
vt -0.074852 0.572485
vt -0.075423 0.658204
vt -0.118998 0.578254
vt -0.119569 0.663973
vt -0.163133 0.582548
vt -0.163704 0.668268
vt -0.207259 0.585468
vt -0.207830 0.671188
vt 0.678401 0.447305
vt 0.678401 0.532926
vt 0.622653 0.447305
vt 0.622653 0.532926
vt 0.572717 0.447305
vt 0.572718 0.532926
vt 0.525088 0.447305
vt 0.525088 0.532926
vt 0.478697 0.447305
vt 0.478697 0.532926
vt 0.433067 0.447305
vt 0.433067 0.532926
vt 0.387944 0.447305
vt 0.387944 0.532926
vt 0.343174 0.447305
vt 0.343174 0.532926
vt 0.298653 0.447305
vt 0.298653 0.532926
vt 0.254309 0.447305
vt 0.254309 0.532926
vt 0.210086 0.447305
vt 0.210086 0.532926
vt 0.335629 0.543013
vt 0.333626 0.457315
vt 0.380520 0.576068
vt 0.378517 0.490370
vt 0.425161 0.598446
vt 0.423158 0.512748
vt 0.469674 0.615388
vt 0.467671 0.529691
vt 0.514104 0.628737
vt 0.512101 0.543039
vt 0.558471 0.639397
vt 0.556468 0.553699
vt 0.602787 0.647890
vt 0.600785 0.562192
vt 0.647061 0.654543
vt 0.645058 0.568845
vt 0.691296 0.659574
vt 0.689293 0.573875
vt 0.735497 0.663130
vt 0.733494 0.577432
vt 0.779666 0.665313
vt 0.777663 0.579615
vn -1.0000 -0.0000 0.0000
vn 0.0000 0.0000 -1.0000
vn 1.0000 0.0000 0.0000
vn 0.0000 -0.0000 1.0000
vn 0.0000 -1.0000 -0.0000
vn 0.0000 1.0000 0.0000
vn -0.2639 0.9645 0.0000
vn 0.2639 -0.9645 0.0000
vn 0.2434 -0.9699 0.0000
vn -0.2434 0.9699 0.0000
vn -0.1563 0.9877 0.0000
vn 0.1563 -0.9877 0.0000
vn 0.0541 -0.9985 0.0000
vn -0.0541 0.9985 0.0000
vn 0.0143 0.9999 0.0000
vn -0.0143 -0.9999 0.0000
vn -0.8468 -0.5319 0.0000
vn -0.6116 -0.7912 0.0000
vn -0.4689 -0.8833 -0.0000
vn -0.3775 -0.9260 -0.0000
vn -0.3100 -0.9507 -0.0000
vn -0.2563 -0.9666 -0.0000
vn -0.2111 -0.9775 -0.0000
vn -0.1717 -0.9852 0.0000
vn -0.1362 -0.9907 0.0000
vn -0.1035 -0.9946 0.0000
vn -0.0727 -0.9974 0.0000
vn -0.0431 -0.9991 0.0000
vn 0.8468 0.5319 0.0000
vn 0.6116 0.7912 0.0000
vn 0.4689 0.8833 0.0000
vn 0.3775 0.9260 0.0000
vn 0.3100 0.9507 0.0000
vn 0.2563 0.9666 0.0000
vn 0.2111 0.9775 0.0000
vn 0.1717 0.9852 0.0000
vn 0.1362 0.9907 0.0000
vn 0.1035 0.9946 0.0000
vn 0.0727 0.9974 0.0000
vn 0.0431 0.9991 0.0000
vn 0.2639 0.9645 0.0000
vn -0.2639 -0.9645 0.0000
vn -0.2434 -0.9699 0.0000
vn 0.2434 0.9699 0.0000
vn 0.1563 0.9877 0.0000
vn -0.1563 -0.9877 0.0000
vn -0.0541 -0.9985 0.0000
vn 0.0541 0.9985 0.0000
vn -0.0143 0.9999 0.0000
vn 0.0143 -0.9999 0.0000
vn 0.8468 -0.5319 0.0000
vn 0.6116 -0.7912 0.0000
vn 0.4689 -0.8833 0.0000
vn 0.3775 -0.9260 0.0000
vn 0.3100 -0.9507 0.0000
vn 0.2563 -0.9666 0.0000
vn 0.2111 -0.9775 -0.0000
vn 0.1717 -0.9852 0.0000
vn 0.1362 -0.9907 0.0000
vn 0.1035 -0.9946 0.0000
vn 0.0727 -0.9974 0.0000
vn 0.0431 -0.9991 0.0000
vn -0.8468 0.5319 0.0000
vn -0.6116 0.7912 0.0000
vn -0.4689 0.8833 0.0000
vn -0.3775 0.9260 0.0000
vn -0.3100 0.9507 0.0000
vn -0.2563 0.9666 0.0000
vn -0.2111 0.9775 0.0000
vn -0.1717 0.9852 0.0000
vn -0.1362 0.9907 0.0000
vn -0.1035 0.9946 0.0000
vn -0.0727 0.9974 0.0000
vn -0.0431 0.9991 0.0000
s off
f 1/1/1 2/2/1 3/3/1 4/4/1
f 4/4/2 3/3/2 5/5/2 6/6/2
f 6/6/3 5/5/3 7/7/3 8/8/3
f 8/9/4 7/10/4 2/2/4 1/1/4
f 4/11/5 6/12/5 8/13/5 1/14/5
f 7/15/6 5/16/6 9/17/6 10/18/6
f 11/19/4 10/20/4 12/21/4 13/22/4
f 3/23/6 2/24/6 11/25/6 14/26/6
f 2/24/6 7/15/6 10/18/6 11/25/6
f 5/16/6 3/23/6 14/26/6 9/17/6
f 15/27/5 16/28/5 17/29/5 18/30/5
f 9/31/2 14/32/2 16/33/2 15/34/2
f 10/35/3 9/36/3 15/37/3 12/38/3
f 14/39/1 11/40/1 13/41/1 16/42/1
f 19/43/3 18/44/3 20/45/3 21/46/3
f 12/47/5 15/27/5 18/30/5 19/48/5
f 16/28/5 13/49/5 22/50/5 17/29/5
f 13/49/5 12/47/5 19/48/5 22/50/5
f 23/51/4 21/52/4 24/53/4 25/54/4
f 17/55/1 22/56/1 23/57/1 26/58/1
f 22/59/4 19/60/4 21/52/4 23/51/4
f 18/61/2 17/62/2 26/63/2 20/64/2
f 27/65/6 28/66/6 25/67/6 24/68/6
f 20/64/2 26/63/2 28/69/2 27/70/2
f 24/53/4 21/52/4 29/71/4 30/72/4
f 31/73/2 32/74/2 33/75/2 34/76/2
f 30/72/4 29/71/4 35/77/4 36/78/4
f 27/65/7 24/68/7 30/79/7 37/80/7
f 20/64/2 27/70/2 37/81/2 38/82/2
f 21/83/8 20/84/8 38/85/8 29/86/8
f 39/87/2 40/88/2 41/89/2 42/90/2
f 29/86/9 38/85/9 39/91/9 35/92/9
f 38/82/2 37/81/2 40/88/2 39/87/2
f 37/80/10 30/79/10 36/93/10 40/94/10
f 43/95/4 44/96/4 45/97/4 46/98/4
f 40/94/11 36/93/11 43/99/11 41/100/11
f 36/78/4 35/77/4 44/96/4 43/95/4
f 35/92/12 39/91/12 42/101/12 44/102/12
f 44/102/13 42/101/13 47/103/13 45/104/13
f 42/90/2 41/89/2 48/105/2 47/106/2
f 41/100/14 43/99/14 46/107/14 48/108/14
f 51/109/15 31/110/15 34/111/15 50/112/15
f 52/113/4 51/114/4 50/115/4 49/116/4
f 32/117/16 52/118/16 49/119/16 33/120/16
f 26/58/17 23/57/17 53/121/17 54/122/17
f 54/122/18 53/121/18 55/123/18 56/124/18
f 56/124/19 55/123/19 57/125/19 58/126/19
f 58/126/20 57/125/20 59/127/20 60/128/20
f 60/128/21 59/127/21 61/129/21 62/130/21
f 62/130/22 61/129/22 63/131/22 64/132/22
f 64/132/23 63/131/23 65/133/23 66/134/23
f 66/134/24 65/133/24 67/135/24 68/136/24
f 68/136/25 67/135/25 69/137/25 70/138/25
f 70/138/26 69/137/26 71/139/26 72/140/26
f 72/140/27 71/139/27 73/141/27 74/142/27
f 74/142/28 73/141/28 52/118/28 32/117/28
f 23/51/4 25/54/4 75/143/4 53/144/4
f 53/144/4 75/143/4 76/145/4 55/146/4
f 55/146/4 76/145/4 77/147/4 57/148/4
f 57/148/4 77/147/4 78/149/4 59/150/4
f 59/150/4 78/149/4 79/151/4 61/152/4
f 61/152/4 79/151/4 80/153/4 63/154/4
f 63/154/4 80/153/4 81/155/4 65/156/4
f 65/156/4 81/155/4 82/157/4 67/158/4
f 67/158/4 82/157/4 83/159/4 69/160/4
f 69/160/4 83/159/4 84/161/4 71/162/4
f 71/162/4 84/161/4 85/163/4 73/164/4
f 73/164/4 85/163/4 51/114/4 52/113/4
f 25/67/29 28/66/29 86/165/29 75/166/29
f 75/166/30 86/165/30 87/167/30 76/168/30
f 76/168/31 87/167/31 88/169/31 77/170/31
f 77/170/32 88/169/32 89/171/32 78/172/32
f 78/172/33 89/171/33 90/173/33 79/174/33
f 79/174/34 90/173/34 91/175/34 80/176/34
f 80/176/35 91/175/35 92/177/35 81/178/35
f 81/178/36 92/177/36 93/179/36 82/180/36
f 82/180/37 93/179/37 94/181/37 83/182/37
f 83/182/38 94/181/38 95/183/38 84/184/38
f 84/184/39 95/183/39 96/185/39 85/186/39
f 85/186/40 96/185/40 31/110/40 51/109/40
f 28/69/2 26/63/2 54/187/2 86/188/2
f 86/188/2 54/187/2 56/189/2 87/190/2
f 87/190/2 56/189/2 58/191/2 88/192/2
f 88/192/2 58/191/2 60/193/2 89/194/2
f 89/194/2 60/193/2 62/195/2 90/196/2
f 90/196/2 62/195/2 64/197/2 91/198/2
f 91/198/2 64/197/2 66/199/2 92/200/2
f 92/200/2 66/199/2 68/201/2 93/202/2
f 93/202/2 68/201/2 70/203/2 94/204/2
f 94/204/2 70/203/2 72/205/2 95/206/2
f 95/206/2 72/205/2 74/207/2 96/208/2
f 96/208/2 74/207/2 32/74/2 31/73/2
f 47/106/3 48/105/3 46/107/3 45/97/3
f 97/209/3 100/210/3 99/211/3 98/212/3
f 100/210/2 102/213/2 101/214/2 99/211/2
f 102/213/1 104/215/1 103/216/1 101/214/1
f 104/217/4 97/209/4 98/212/4 103/218/4
f 100/219/5 97/220/5 104/221/5 102/222/5
f 103/223/6 106/224/6 105/225/6 101/226/6
f 107/227/4 109/228/4 108/229/4 106/230/4
f 99/231/6 110/232/6 107/233/6 98/234/6
f 98/234/6 107/233/6 106/224/6 103/223/6
f 101/226/6 105/225/6 110/232/6 99/231/6
f 111/235/5 114/236/5 113/237/5 112/238/5
f 105/239/2 111/240/2 112/241/2 110/242/2
f 106/243/1 108/244/1 111/245/1 105/246/1
f 110/247/3 112/248/3 109/249/3 107/250/3
f 115/251/1 117/252/1 116/253/1 114/254/1
f 108/255/5 115/256/5 114/236/5 111/235/5
f 112/238/5 113/237/5 118/257/5 109/258/5
f 109/258/5 118/257/5 115/256/5 108/255/5
f 119/259/4 121/260/4 120/261/4 117/262/4
f 113/263/3 122/264/3 119/265/3 118/266/3
f 118/267/4 119/259/4 117/262/4 115/268/4
f 114/269/2 116/270/2 122/271/2 113/272/2
f 123/273/6 120/274/6 121/275/6 124/276/6
f 116/270/2 123/277/2 124/278/2 122/271/2
f 120/261/4 126/279/4 125/280/4 117/262/4
f 127/281/2 34/76/2 33/75/2 128/282/2
f 126/279/4 130/283/4 129/284/4 125/280/4
f 123/273/41 131/285/41 126/286/41 120/274/41
f 116/270/2 132/287/2 131/288/2 123/277/2
f 117/289/42 125/290/42 132/291/42 116/292/42
f 133/293/2 136/294/2 135/295/2 134/296/2
f 125/290/43 129/297/43 133/298/43 132/291/43
f 132/287/2 133/293/2 134/296/2 131/288/2
f 131/285/44 134/299/44 130/300/44 126/286/44
f 137/301/4 140/302/4 139/303/4 138/304/4
f 134/299/45 135/305/45 137/306/45 130/300/45
f 130/283/4 137/301/4 138/304/4 129/284/4
f 129/297/46 138/307/46 136/308/46 133/298/46
f 138/307/47 139/309/47 141/310/47 136/308/47
f 136/294/2 141/311/2 142/312/2 135/295/2
f 135/305/48 142/313/48 140/314/48 137/306/48
f 143/315/49 50/112/49 34/111/49 127/316/49
f 144/317/4 49/116/4 50/115/4 143/318/4
f 128/319/50 33/120/50 49/119/50 144/320/50
f 122/264/51 146/321/51 145/322/51 119/265/51
f 146/321/52 148/323/52 147/324/52 145/322/52
f 148/323/53 150/325/53 149/326/53 147/324/53
f 150/325/54 152/327/54 151/328/54 149/326/54
f 152/327/55 154/329/55 153/330/55 151/328/55
f 154/329/56 156/331/56 155/332/56 153/330/56
f 156/331/57 158/333/57 157/334/57 155/332/57
f 158/333/58 160/335/58 159/336/58 157/334/58
f 160/335/59 162/337/59 161/338/59 159/336/59
f 162/337/60 164/339/60 163/340/60 161/338/60
f 164/339/61 166/341/61 165/342/61 163/340/61
f 166/341/62 128/319/62 144/320/62 165/342/62
f 119/259/4 145/343/4 167/344/4 121/260/4
f 145/343/4 147/345/4 168/346/4 167/344/4
f 147/345/4 149/347/4 169/348/4 168/346/4
f 149/347/4 151/349/4 170/350/4 169/348/4
f 151/349/4 153/351/4 171/352/4 170/350/4
f 153/351/4 155/353/4 172/354/4 171/352/4
f 155/353/4 157/355/4 173/356/4 172/354/4
f 157/355/4 159/357/4 174/358/4 173/356/4
f 159/357/4 161/359/4 175/360/4 174/358/4
f 161/359/4 163/361/4 176/362/4 175/360/4
f 163/361/4 165/363/4 177/364/4 176/362/4
f 165/363/4 144/317/4 143/318/4 177/364/4
f 121/275/63 167/365/63 178/366/63 124/276/63
f 167/365/64 168/367/64 179/368/64 178/366/64
f 168/367/65 169/369/65 180/370/65 179/368/65
f 169/369/66 170/371/66 181/372/66 180/370/66
f 170/371/67 171/373/67 182/374/67 181/372/67
f 171/373/68 172/375/68 183/376/68 182/374/68
f 172/375/69 173/377/69 184/378/69 183/376/69
f 173/377/70 174/379/70 185/380/70 184/378/70
f 174/379/71 175/381/71 186/382/71 185/380/71
f 175/381/72 176/383/72 187/384/72 186/382/72
f 176/383/73 177/385/73 188/386/73 187/384/73
f 177/385/74 143/315/74 127/316/74 188/386/74
f 124/278/2 178/387/2 146/388/2 122/271/2
f 178/387/2 179/389/2 148/390/2 146/388/2
f 179/389/2 180/391/2 150/392/2 148/390/2
f 180/391/2 181/393/2 152/394/2 150/392/2
f 181/393/2 182/395/2 154/396/2 152/394/2
f 182/395/2 183/397/2 156/398/2 154/396/2
f 183/397/2 184/399/2 158/400/2 156/398/2
f 184/399/2 185/401/2 160/402/2 158/400/2
f 185/401/2 186/403/2 162/404/2 160/402/2
f 186/403/2 187/405/2 164/406/2 162/404/2
f 187/405/2 188/407/2 166/408/2 164/406/2
f 188/407/2 127/281/2 128/282/2 166/408/2
f 141/311/1 139/303/1 140/314/1 142/312/1
