# Blender v3.0.1 OBJ File: 'painting.blend'
# www.blender.org
mtllib painting.mtl
o frame_Cube.001
v -1.720739 -0.866624 0.138286
v -1.720739 0.866624 0.138286
v -1.854115 -1.000000 -0.138286
v -1.854115 1.000000 -0.138286
v 0.866624 -0.866624 0.138286
v 0.866624 0.866624 0.138286
v 1.000000 -1.000000 -0.138286
v 1.000000 1.000000 -0.138286
v -1.854115 -1.000000 0.138286
v -1.854115 1.000000 0.138286
v 1.000000 1.000000 0.138286
v 1.000000 -1.000000 0.138286
v -1.720739 -0.866624 0.059660
v -1.720739 0.866624 0.059660
v 0.866624 0.866624 0.059660
v 0.866624 -0.866624 0.059660
vt 0.908062 0.000000
vt 0.908062 0.584660
vt 0.827211 0.584660
vt 0.827211 0.000000
vt 0.827211 0.000000
vt 0.827211 0.584660
vt 0.746361 0.584660
vt 0.746361 0.000000
vt 0.954031 0.000000
vt 0.954031 0.756365
vt 0.931046 0.756365
vt 0.931046 0.000000
vt 0.665511 0.000000
vt 0.665511 0.834344
vt 0.584660 0.834344
vt 0.584660 0.000000
vt 0.746361 0.000000
vt 0.746361 0.834344
vt 0.665511 0.834344
vt 0.665511 0.000000
vt 0.545671 0.038990
vt 0.038990 0.038990
vt 0.000000 0.000000
vt 0.038990 0.795354
vt 0.545671 0.795354
vt 0.000000 0.834344
vt 0.977015 0.506681
vt 0.977015 0.000000
vt 1.000000 0.000000
vt 1.000000 0.506681
vt 0.931046 0.000000
vt 0.931046 0.756365
vt 0.908062 0.756365
vt 0.908062 0.000000
vt 0.977015 0.000000
vt 0.977015 0.506681
vt 0.954031 0.506681
vt 0.954031 0.000000
vn -1.0000 0.0000 0.0000
vn 1.0000 0.0000 0.0000
vn 0.0000 1.0000 0.0000
vn 0.0000 -1.0000 0.0000
vn 0.0000 0.0000 1.0000
usemtl wood
s off
f 9/1/1 10/2/1 4/3/1 3/4/1
f 7/5/2 8/6/2 11/7/2 12/8/2
f 1/9/3 5/10/3 16/11/3 13/12/3
f 3/13/4 7/14/4 12/15/4 9/16/4
f 8/17/3 4/18/3 10/19/3 11/20/3
f 1/21/5 2/22/5 10/23/5 9/16/5
f 6/24/5 5/25/5 12/15/5 11/26/5
f 5/25/5 1/21/5 9/16/5 12/15/5
f 2/22/5 6/24/5 11/26/5 10/23/5
f 2/27/2 1/28/2 13/29/2 14/30/2
f 6/31/4 2/32/4 14/33/4 15/34/4
f 5/35/1 6/36/1 15/37/1 16/38/1
o paint_Cube.002
v -1.720739 -0.866624 0.059660
v -1.720739 0.866624 0.059660
v 0.866624 0.866624 0.059660
v 0.866624 -0.866624 0.059660
vt 0.933292 0.002086
vt 0.933292 0.997913
vt 0.097105 0.997914
vt 0.097105 0.002087
vn 0.0000 0.0000 1.0000
usemtl painting
s off
f 20/39/6 19/40/6 18/41/6 17/42/6
