# Blender v3.0.1 OBJ File: 'churchFull.blend'
# www.blender.org
mtllib secretDoor.mtl
o secrectDoor_Plane.001
v -1.000000 0.000000 8.000000
v -1.000000 16.276613 8.000000
v -1.000000 0.000000 -1.157531
v -1.000000 16.276613 -1.157531
v 1.000000 0.000000 8.000000
v 1.000000 16.276613 8.000000
v 1.000000 0.000000 -1.157531
v 1.000000 16.276613 -1.157531
vt 0.586908 0.433989
vt 0.586908 0.609280
vt 0.488286 0.609280
vt 0.488286 0.433989
vt 0.564859 0.433893
vt 0.389568 0.433893
vt 0.389568 0.412354
vt 0.564859 0.412354
vt 0.488190 0.433989
vt 0.488190 0.609280
vt 0.389568 0.609280
vt 0.389568 0.433989
vt 0.564859 0.412259
vt 0.389568 0.412259
vt 0.389568 0.390720
vt 0.564859 0.390720
vt 0.608542 0.609280
vt 0.587003 0.609280
vt 0.587003 0.510658
vt 0.608542 0.510658
vt 0.608542 0.510563
vt 0.587003 0.510563
vt 0.587003 0.411940
vt 0.608542 0.411940
vn -1.0000 0.0000 0.0000
vn 0.0000 0.0000 -1.0000
vn 1.0000 0.0000 0.0000
vn 0.0000 0.0000 1.0000
vn 0.0000 -1.0000 0.0000
vn 0.0000 1.0000 0.0000
usemtl stoneMaterial
s off
f 1/1/1 2/2/1 4/3/1 3/4/1
f 3/5/2 4/6/2 8/7/2 7/8/2
f 7/9/3 8/10/3 6/11/3 5/12/3
f 5/13/4 6/14/4 2/15/4 1/16/4
f 3/17/5 7/18/5 5/19/5 1/20/5
f 8/21/6 4/22/6 2/23/6 6/24/6
