# Blender v3.0.1 OBJ File: ''
# www.blender.org
mtllib table.mtl
o Cube_Cube.001
v -1.046926 1.783215 1.433881
v -1.433881 1.783215 1.046927
v -1.240404 1.783215 1.382039
v -1.382039 1.783215 1.240404
v -1.433881 2.000000 1.046926
v -1.046927 2.000000 1.433881
v -1.382039 2.000000 1.240404
v -1.240404 2.000000 1.382039
v -1.433881 1.783215 -1.046926
v -1.046927 1.783215 -1.433881
v -1.382039 1.783215 -1.240404
v -1.240404 1.783215 -1.382039
v -1.046926 2.000000 -1.433881
v -1.433881 2.000000 -1.046927
v -1.240404 2.000000 -1.382039
v -1.382039 2.000000 -1.240404
v 1.433881 1.783215 1.046926
v 1.046927 1.783215 1.433881
v 1.382039 1.783215 1.240404
v 1.240404 1.783215 1.382039
v 1.046926 2.000000 1.433881
v 1.433881 2.000000 1.046927
v 1.240404 2.000000 1.382039
v 1.382039 2.000000 1.240404
v 1.046926 1.783215 -1.433881
v 1.433881 1.783215 -1.046927
v 1.240404 1.783215 -1.382039
v 1.382039 1.783215 -1.240404
v 1.433881 2.000000 -1.046926
v 1.046927 2.000000 -1.433881
v 1.382039 2.000000 -1.240404
v 1.240404 2.000000 -1.382039
v -1.000000 0.000000 -1.117536
v -1.000000 1.783215 -1.117536
v -0.888217 0.000000 -1.036321
v -0.888217 1.783215 -1.036321
v -0.930914 0.000000 -0.904911
v -0.930914 1.783215 -0.904911
v -1.069086 0.000000 -0.904911
v -1.069086 1.783215 -0.904911
v -1.111783 0.000000 -1.036321
v -1.111783 1.783215 -1.036321
v 1.000000 0.000000 -1.117536
v 1.000000 1.783215 -1.117536
v 0.888217 0.000000 -1.036321
v 0.888217 1.783215 -1.036321
v 0.930914 0.000000 -0.904911
v 0.930914 1.783215 -0.904911
v 1.069086 0.000000 -0.904911
v 1.069086 1.783215 -0.904911
v 1.111783 0.000000 -1.036321
v 1.111783 1.783215 -1.036321
v -1.000000 0.000000 1.117536
v -1.000000 1.783215 1.117536
v -0.888217 0.000000 1.036321
v -0.888217 1.783215 1.036321
v -0.930914 0.000000 0.904911
v -0.930914 1.783215 0.904911
v -1.069086 0.000000 0.904911
v -1.069086 1.783215 0.904911
v -1.111783 0.000000 1.036321
v -1.111783 1.783215 1.036321
v 1.000000 0.000000 1.117536
v 1.000000 1.783215 1.117536
v 0.888217 0.000000 1.036321
v 0.888217 1.783215 1.036321
v 0.930914 0.000000 0.904911
v 0.930914 1.783215 0.904911
v 1.069086 0.000000 0.904911
v 1.069086 1.783215 0.904911
v 1.111783 0.000000 1.036321
v 1.111783 1.783215 1.036321
vt 0.500000 0.058428
vt 0.537797 0.058428
vt 0.537797 0.423495
vt 0.500000 0.423495
vt 0.575594 0.033733
vt 0.613391 0.033733
vt 0.613391 0.398800
vt 0.575594 0.398800
vt 0.067466 0.500000
vt 0.033733 0.490961
vt 0.009039 0.466267
vt 0.000000 0.432534
vt 0.000000 0.067466
vt 0.009039 0.033733
vt 0.033733 0.009039
vt 0.067466 0.000000
vt 0.432534 0.000000
vt 0.466267 0.009039
vt 0.490961 0.033733
vt 0.500000 0.067466
vt 0.500000 0.432534
vt 0.490961 0.466267
vt 0.466267 0.490961
vt 0.432534 0.500000
vt 0.613390 0.033733
vt 0.651187 0.033733
vt 0.651187 0.398800
vt 0.613390 0.398800
vt 0.537797 0.058428
vt 0.575594 0.058428
vt 0.575594 0.423495
vt 0.537797 0.423495
vt 0.537797 0.457228
vt 0.500000 0.457228
vt 0.537797 0.481922
vt 0.500000 0.481922
vt 0.613390 0.000000
vt 0.651187 0.000000
vt 0.537797 0.024694
vt 0.575594 0.024694
vt 0.537797 0.000000
vt 0.575594 0.000000
vt 0.651187 0.432534
vt 0.613390 0.432534
vt 0.575594 0.000000
vt 0.613391 0.000000
vt 0.575594 0.481922
vt 0.537797 0.481922
vt 0.537797 0.457228
vt 0.575594 0.457228
vt 0.500000 0.024694
vt 0.537797 0.024694
vt 0.500000 0.000000
vt 0.537797 0.000000
vt 0.613391 0.432534
vt 0.575594 0.432534
vt 0.067466 1.000000
vt 0.033733 0.990961
vt 0.009039 0.966267
vt 0.000000 0.932534
vt 0.000000 0.567466
vt 0.009039 0.533733
vt 0.033733 0.509039
vt 0.067466 0.500000
vt 0.432534 0.500000
vt 0.466267 0.509039
vt 0.490961 0.533733
vt 0.500000 0.567466
vt 0.500000 0.932534
vt 0.490961 0.966267
vt 0.466267 0.990961
vt 0.432534 1.000000
vt 0.670677 0.000000
vt 0.670677 0.310907
vt 0.651187 0.310907
vt 0.651187 0.000000
vt 0.776148 0.000000
vt 0.776148 0.310907
vt 0.753237 0.310907
vt 0.753237 0.000000
vt 0.729146 0.310907
vt 0.729146 0.000000
vt 0.688259 0.653349
vt 0.665347 0.660793
vt 0.651187 0.641304
vt 0.665347 0.621814
vt 0.688259 0.629258
vt 0.568735 0.481922
vt 0.568734 0.792830
vt 0.545823 0.792830
vt 0.545823 0.481922
vt 0.690167 0.000000
vt 0.690167 0.310907
vt 0.665347 0.660793
vt 0.688259 0.668238
vt 0.688259 0.692328
vt 0.665347 0.699773
vt 0.651187 0.680283
vt 0.709656 0.000000
vt 0.729146 0.000000
vt 0.729146 0.310907
vt 0.709656 0.310907
vt 0.776148 0.000000
vt 0.799060 0.000000
vt 0.799060 0.310907
vt 0.776148 0.310907
vt 0.575594 0.432534
vt 0.599684 0.432534
vt 0.599684 0.743441
vt 0.575594 0.743441
vt 0.725330 0.629258
vt 0.725330 0.653349
vt 0.702419 0.660793
vt 0.688259 0.641304
vt 0.702419 0.621814
vt 0.753237 0.310907
vt 0.776148 0.310907
vt 0.776148 0.621814
vt 0.753237 0.621814
vt 0.690167 0.000000
vt 0.690167 0.310907
vt 0.702419 0.699773
vt 0.688259 0.680283
vt 0.702419 0.660793
vt 0.725330 0.668238
vt 0.725330 0.692328
vt 0.709656 0.310907
vt 0.729146 0.310907
vt 0.729146 0.621814
vt 0.709656 0.621814
vt 0.776148 0.310907
vt 0.799060 0.310907
vt 0.799060 0.621814
vt 0.776148 0.621814
vt 0.613391 0.432534
vt 0.637481 0.432534
vt 0.637481 0.743441
vt 0.613391 0.743441
vt 0.688259 0.707217
vt 0.688259 0.731308
vt 0.665347 0.738752
vt 0.651187 0.719262
vt 0.665347 0.699773
vt 0.500000 0.481922
vt 0.522911 0.481922
vt 0.522911 0.792830
vt 0.500000 0.792830
vt 0.690167 0.310907
vt 0.690167 0.621814
vt 0.702419 0.738752
vt 0.688259 0.719262
vt 0.702419 0.699773
vt 0.725330 0.707217
vt 0.725330 0.731308
vt 0.670677 0.310907
vt 0.670677 0.621814
vt 0.651187 0.621814
vt 0.651187 0.310907
vt 0.545823 0.481922
vt 0.545823 0.792830
vt 0.522911 0.792830
vt 0.522912 0.481922
vt 0.753237 0.310907
vt 0.753237 0.621814
vt 0.729146 0.621814
vt 0.729146 0.310907
vt 0.762402 0.653349
vt 0.739490 0.660793
vt 0.725330 0.641304
vt 0.739490 0.621814
vt 0.762402 0.629258
vt 0.821971 0.000000
vt 0.821971 0.310907
vt 0.799060 0.310907
vt 0.799060 0.000000
vt 0.690167 0.310907
vt 0.690167 0.621814
vt 0.739490 0.660793
vt 0.762402 0.668238
vt 0.762402 0.692328
vt 0.739490 0.699773
vt 0.725330 0.680283
vn 0.0000 0.0000 1.0000
vn 1.0000 -0.0000 0.0000
vn 0.0000 1.0000 -0.0000
vn -1.0000 -0.0000 0.0000
vn 0.0000 0.0000 -1.0000
vn -0.2588 0.0000 0.9659
vn -0.7071 0.0000 0.7071
vn -0.9659 -0.0000 0.2588
vn -0.2588 -0.0000 -0.9659
vn -0.7071 -0.0000 -0.7071
vn -0.9659 0.0000 -0.2588
vn 0.9659 -0.0000 -0.2588
vn 0.7071 0.0000 -0.7071
vn 0.2588 0.0000 -0.9659
vn 0.2588 -0.0000 0.9659
vn 0.7071 -0.0000 0.7071
vn 0.9659 0.0000 0.2588
vn 0.0000 -1.0000 -0.0000
vn 0.5878 0.0000 -0.8090
vn 0.9511 0.0000 0.3090
vn -0.9511 0.0000 0.3090
vn -0.5878 0.0000 -0.8090
vn 0.5878 0.0000 0.8090
vn 0.9511 0.0000 -0.3090
vn -0.9511 0.0000 -0.3090
vn -0.5878 0.0000 0.8090
usemtl wood
s off
f 18/1/1 21/2/1 6/3/1 1/4/1
f 26/5/2 29/6/2 22/7/2 17/8/2
f 29/9/3 31/10/3 32/11/3 30/12/3 13/13/3 15/14/3 16/15/3 14/16/3 5/17/3 7/18/3 8/19/3 6/20/3 21/21/3 23/22/3 24/23/3 22/24/3
f 2/25/4 5/26/4 14/27/4 9/28/4
f 10/29/5 13/30/5 30/31/5 25/32/5
f 1/4/6 6/3/6 8/33/6 3/34/6
f 3/34/7 8/33/7 7/35/7 4/36/7
f 4/37/8 7/38/8 5/26/8 2/25/8
f 13/30/9 10/29/9 12/39/9 15/40/9
f 15/40/10 12/39/10 11/41/10 16/42/10
f 16/43/11 11/44/11 9/28/11 14/27/11
f 29/6/12 26/5/12 28/45/12 31/46/12
f 31/47/13 28/48/13 27/49/13 32/50/13
f 32/50/14 27/49/14 25/32/14 30/31/14
f 21/2/15 18/1/15 20/51/15 23/52/15
f 23/52/16 20/51/16 19/53/16 24/54/16
f 24/55/17 19/56/17 17/8/17 22/7/17
f 9/57/18 11/58/18 12/59/18 10/60/18 25/61/18 27/62/18 28/63/18 26/64/18 17/65/18 19/66/18 20/67/18 18/68/18 1/69/18 3/70/18 4/71/18 2/72/18
f 33/73/19 34/74/19 36/75/19 35/76/19
f 35/77/20 36/78/20 38/79/20 37/80/20
f 37/80/1 38/79/1 40/81/1 39/82/1
f 36/83/3 34/84/3 42/85/3 40/86/3 38/87/3
f 39/88/21 40/89/21 42/90/21 41/91/21
f 41/92/22 42/93/22 34/74/22 33/73/22
f 33/94/18 35/95/18 37/96/18 39/97/18 41/98/18
f 43/99/22 45/100/22 46/101/22 44/102/22
f 45/103/21 47/104/21 48/105/21 46/106/21
f 47/107/1 49/108/1 50/109/1 48/110/1
f 46/111/3 48/112/3 50/113/3 52/114/3 44/115/3
f 49/116/20 51/117/20 52/118/20 50/119/20
f 51/120/19 43/99/19 44/102/19 52/121/19
f 43/122/18 51/123/18 49/124/18 47/125/18 45/126/18
f 53/127/23 55/128/23 56/129/23 54/130/23
f 55/131/24 57/132/24 58/133/24 56/134/24
f 57/135/5 59/136/5 60/137/5 58/138/5
f 56/139/3 58/140/3 60/141/3 62/142/3 54/143/3
f 59/144/25 61/145/25 62/146/25 60/147/25
f 61/148/26 53/127/26 54/130/26 62/149/26
f 53/150/18 61/151/18 59/152/18 57/153/18 55/154/18
f 63/155/26 64/156/26 66/157/26 65/158/26
f 65/159/25 66/160/25 68/161/25 67/162/25
f 67/163/5 68/164/5 70/165/5 69/166/5
f 66/167/3 64/168/3 72/169/3 70/170/3 68/171/3
f 69/172/24 70/173/24 72/174/24 71/175/24
f 71/176/23 72/177/23 64/156/23 63/155/23
f 63/178/18 65/179/18 67/180/18 69/181/18 71/182/18
